<?xml version="1.0" encoding="iso-8859-1"?>
<!-- Generator: Adobe Illustrator 23.0.2, SVG Export Plug-In . SVG Version: 6.00 Build 0)  -->
<svg version="1.1" id="Layer_1" xmlns="http://www.w3.org/2000/svg" xmlns:xlink="http://www.w3.org/1999/xlink" x="0px" y="0px"
	 viewBox="0 0 64 64" style="enable-background:new 0 0 64 64;" xml:space="preserve">
<g>
	<linearGradient id="SVGID_1_" gradientUnits="userSpaceOnUse" x1="32" y1="97.25" x2="32" y2="9.1363">
		<stop  offset="0" style="stop-color:#CAF1D8"/>
		<stop  offset="0.5054" style="stop-color:#7DEFA4"/>
		<stop  offset="1" style="stop-color:#2FBCA4"/>
	</linearGradient>
	<circle style="fill:url(#SVGID_1_);" cx="32" cy="32" r="28"/>
	<g>
		<linearGradient id="SVGID_2_" gradientUnits="userSpaceOnUse" x1="29.3043" y1="66.0791" x2="29.3043" y2="-25.0853">
			<stop  offset="0" style="stop-color:#CAF1D8"/>
			<stop  offset="0.5054" style="stop-color:#7DEFA4"/>
			<stop  offset="1" style="stop-color:#2FBCA4"/>
		</linearGradient>
		<path style="fill:url(#SVGID_2_);" d="M40.081,35.067c-0.722-0.668-1.837-0.669-2.56-0.003l-4.61,4.249
			c-0.612,0.564-1.552,0.572-2.174,0.019L12.559,23.169c-1.056-0.939-2.67-0.858-3.626,0.183l-4.704,5.121
			C4.083,29.629,4,30.804,4,32c0,15.464,12.536,28,28,28c9.288,0,17.515-4.525,22.609-11.488L40.081,35.067z"/>
		<linearGradient id="SVGID_3_" gradientUnits="userSpaceOnUse" x1="45.9655" y1="68.2269" x2="45.9655" y2="11.6783">
			<stop  offset="0" style="stop-color:#CAF1D8"/>
			<stop  offset="0.5054" style="stop-color:#7DEFA4"/>
			<stop  offset="1" style="stop-color:#2FBCA4"/>
		</linearGradient>
		<path style="fill:url(#SVGID_3_);" d="M54.609,48.512L40.081,35.067c-0.004-0.003-0.007-0.007-0.011-0.01
			c-0.51-0.465-1.333-0.088-1.333,0.603v0.222c0,1.3,0.487,2.553,1.364,3.513c1.245,1.361,1.278,3.436,0.077,4.836l-2.854,3.326
			l6.5,9.826C48.125,55.374,51.832,52.307,54.609,48.512z"/>
		<linearGradient id="SVGID_4_" gradientUnits="userSpaceOnUse" x1="26.19" y1="72.501" x2="26.19" y2="7.3167">
			<stop  offset="0" style="stop-color:#CAF1D8"/>
			<stop  offset="0.5054" style="stop-color:#7DEFA4"/>
			<stop  offset="1" style="stop-color:#2FBCA4"/>
		</linearGradient>
		<path style="fill:url(#SVGID_4_);" d="M32,60c5.974,0,11.506-1.877,16.052-5.064L30.257,38.905L12.559,23.169
			c-0.005-0.005-0.01-0.009-0.016-0.014c-0.696-0.609-1.787-0.101-1.787,0.823c0,2.322-0.742,4.584-2.118,6.455l-4.311,5.862
			c0.419,2.722,1.232,5.314,2.376,7.718c0.14,0.177,0.296,0.34,0.428,0.523l5.694,7.859C17.837,57.107,24.579,60,32,60z"/>
		<linearGradient id="SVGID_5_" gradientUnits="userSpaceOnUse" x1="21.3361" y1="66.8242" x2="21.3361" y2="46.2956">
			<stop  offset="0" style="stop-color:#CAF1D8"/>
			<stop  offset="0.5054" style="stop-color:#7DEFA4"/>
			<stop  offset="1" style="stop-color:#2FBCA4"/>
		</linearGradient>
		<path style="fill:url(#SVGID_5_);" d="M28.104,57.17c0.108-0.072,0.151-0.22,0.083-0.342l-0.689-1.24
			c0.092-0.045,0.133-0.161,0.08-0.256l-0.526-0.946l0.001,0c0.086-0.02,0.128-0.116,0.086-0.193l-1.03-1.854
			c-0.024-0.044-0.088-0.044-0.113,0l-1.03,1.854c-0.043,0.077,0,0.173,0.086,0.193l0.001,0l-0.526,0.946
			c-0.053,0.095-0.012,0.211,0.08,0.256l-0.366,0.659l-0.318-0.573c0.159-0.078,0.228-0.278,0.138-0.441l-0.906-1.63
			c0.001,0,0.001,0,0.002,0c0.147-0.034,0.221-0.2,0.148-0.332l-1.775-3.193c-0.042-0.076-0.152-0.076-0.194,0L19.56,53.27
			c-0.073,0.132,0,0.298,0.148,0.332c0,0,0.001,0,0.002,0l-0.326,0.586l-0.572-1.03c0.159-0.078,0.228-0.278,0.138-0.441
			l-0.906-1.63l0.001,0c0.148-0.034,0.222-0.2,0.148-0.332l-1.775-3.193c-0.042-0.076-0.152-0.076-0.194,0l-1.775,3.193
			c-0.073,0.132,0,0.298,0.148,0.332c0.001,0,0.001,0,0.001,0l-0.905,1.63c-0.091,0.163-0.021,0.363,0.138,0.441l-0.052,0.093
			c3.655,3.137,8.125,5.345,13.052,6.265c0.642-0.042,1.282-0.117,1.912-0.263c0.23-0.053,0.345-0.312,0.23-0.518L28.104,57.17z"/>
		<g>
			<linearGradient id="SVGID_6_" gradientUnits="userSpaceOnUse" x1="36.2338" y1="66.6119" x2="36.2338" y2="46.4959">
				<stop  offset="0" style="stop-color:#CAF1D8"/>
				<stop  offset="0.5054" style="stop-color:#7DEFA4"/>
				<stop  offset="1" style="stop-color:#2FBCA4"/>
			</linearGradient>
			<path style="fill:url(#SVGID_6_);" d="M46.182,55.958l-0.906-1.63c0,0,0.001,0,0.002,0c0.147-0.034,0.221-0.2,0.148-0.332
				l-1.775-3.193c-0.042-0.076-0.152-0.076-0.194,0l-1.774,3.193c-0.074,0.132,0,0.298,0.147,0.332l0.002,0l-0.326,0.586
				l-0.572-1.03c0.159-0.078,0.228-0.278,0.138-0.441l-0.906-1.63c0.001,0,0.001,0,0.001,0c0.148-0.034,0.222-0.2,0.148-0.332
				l-1.775-3.193c-0.042-0.076-0.152-0.076-0.194,0l-1.775,3.193c-0.074,0.132,0,0.298,0.147,0.332c0.001,0,0.001,0,0.002,0
				l-0.906,1.63c-0.091,0.163-0.021,0.363,0.138,0.441l-1.019,1.833l-0.479-0.861c0.001,0,0.001,0,0.001,0
				c0.148-0.034,0.222-0.2,0.148-0.332L32.83,51.33c-0.042-0.076-0.152-0.076-0.194,0l-1.775,3.193
				c-0.074,0.132,0,0.298,0.148,0.332c0.001,0,0.001,0,0.002,0L30.319,56.1l-0.363-0.654l0.001,0
				c0.086-0.02,0.129-0.116,0.086-0.193l-1.03-1.854c-0.024-0.044-0.088-0.044-0.113,0l-1.03,1.854
				c-0.043,0.077,0,0.173,0.086,0.193l0.001,0l-0.526,0.946c-0.053,0.095-0.012,0.211,0.08,0.256l-0.689,1.24
				c-0.068,0.122-0.025,0.27,0.083,0.342l-0.654,1.176C28.106,59.794,30.029,60,32,60c5.191,0,10.049-1.418,14.217-3.88
				C46.218,56.065,46.211,56.01,46.182,55.958z"/>
			<linearGradient id="SVGID_7_" gradientUnits="userSpaceOnUse" x1="47.8682" y1="57.287" x2="47.8682" y2="52.6294">
				<stop  offset="0" style="stop-color:#CAF1D8"/>
				<stop  offset="0.5054" style="stop-color:#7DEFA4"/>
				<stop  offset="1" style="stop-color:#2FBCA4"/>
			</linearGradient>
			<path style="fill:url(#SVGID_7_);" d="M48.118,53.064l-1.03,1.854c-0.043,0.077,0,0.173,0.086,0.193l0.001,0l-0.359,0.646
				c0.724-0.453,1.427-0.936,2.105-1.451l-0.69-1.242C48.206,53.02,48.143,53.02,48.118,53.064z"/>
		</g>
	</g>
	<g>
		<linearGradient id="SVGID_8_" gradientUnits="userSpaceOnUse" x1="19.1761" y1="19.342" x2="19.1761" y2="-5.9879">
			<stop  offset="0" style="stop-color:#CAF1D8"/>
			<stop  offset="0.5054" style="stop-color:#7DEFA4"/>
			<stop  offset="1" style="stop-color:#2FBCA4"/>
		</linearGradient>
		<path style="fill:url(#SVGID_8_);" d="M23.951,13.46c-3.341-1.117-6.331-2.671-8.378-4.129c-0.399,0.289-0.79,0.587-1.172,0.897
			C19.999,12.344,23.951,13.46,23.951,13.46z"/>
		<linearGradient id="SVGID_9_" gradientUnits="userSpaceOnUse" x1="13.7826" y1="24.3541" x2="13.7826" y2="-8.5784">
			<stop  offset="0" style="stop-color:#CAF1D8"/>
			<stop  offset="0.5054" style="stop-color:#7DEFA4"/>
			<stop  offset="1" style="stop-color:#2FBCA4"/>
		</linearGradient>
		<path style="fill:url(#SVGID_9_);" d="M8.849,16.251c5.333,1.332,9.867,1.747,9.867,1.747c-2.774-0.386-5.227-1.382-6.032-2.191
			c-0.643-0.646-1.961-0.828-2.713-1.08C9.582,15.222,9.205,15.728,8.849,16.251z"/>
		
			<linearGradient id="SVGID_10_" gradientUnits="userSpaceOnUse" x1="1923.5122" y1="29.8751" x2="1923.5122" y2="-31.6612" gradientTransform="matrix(1 0 0 1 -1880.2188 0)">
			<stop  offset="0" style="stop-color:#CAF1D8"/>
			<stop  offset="0.5054" style="stop-color:#7DEFA4"/>
			<stop  offset="1" style="stop-color:#2FBCA4"/>
		</linearGradient>
		<path style="fill:url(#SVGID_10_);" d="M31.526,18.97c0,0,4.606,0.86,7.29,0.295c2.685-0.565,4.086,0.607,5.899-0.191
			c1.813-0.798,3.368,0.251,3.877,1.009c0.51,0.759,1.874,0.001,2.897,0.675c1.023,0.675,3.57,0.615,3.57,0.615
			S47.294,23.843,31.526,18.97z"/>
		
			<linearGradient id="SVGID_11_" gradientUnits="userSpaceOnUse" x1="1918.7528" y1="29.8754" x2="1918.7528" y2="-31.6624" gradientTransform="matrix(1 0 0 1 -1880.2188 0)">
			<stop  offset="0" style="stop-color:#CAF1D8"/>
			<stop  offset="0.5054" style="stop-color:#7DEFA4"/>
			<stop  offset="1" style="stop-color:#2FBCA4"/>
		</linearGradient>
		<path style="fill:url(#SVGID_11_);" d="M32.005,13.362c0,0,2.533,0.594,4.072,0.217c1.539-0.377,2.256,0.422,3.319-0.116
			c1.063-0.538,1.874,0.178,2.116,0.694c0.242,0.516,1.051,0.005,1.585,0.465c0.534,0.46,1.966,0.426,1.966,0.426
			S40.563,16.705,32.005,13.362z"/>
		
			<linearGradient id="SVGID_12_" gradientUnits="userSpaceOnUse" x1="1907.0981" y1="29.8758" x2="1907.0981" y2="-31.663" gradientTransform="matrix(1 0 0 1 -1880.2188 0)">
			<stop  offset="0" style="stop-color:#CAF1D8"/>
			<stop  offset="0.5054" style="stop-color:#7DEFA4"/>
			<stop  offset="1" style="stop-color:#2FBCA4"/>
		</linearGradient>
		<path style="fill:url(#SVGID_12_);" d="M24.695,9.184c0,0,2.957,0.986,4.368,0.726c0,0-0.849-0.28-1.176-0.574
			c-0.328-0.294-1.081-0.488-1.402-0.292c-0.321,0.197-0.443-0.284-0.802-0.104C25.323,9.12,24.695,9.184,24.695,9.184z"/>
		
			<linearGradient id="SVGID_13_" gradientUnits="userSpaceOnUse" x1="1925.7926" y1="21.9351" x2="1925.7926" y2="-39.6018" gradientTransform="matrix(1 0 0 1 -1880.2188 0)">
			<stop  offset="0" style="stop-color:#CAF1D8"/>
			<stop  offset="0.5054" style="stop-color:#7DEFA4"/>
			<stop  offset="1" style="stop-color:#2FBCA4"/>
		</linearGradient>
		<path style="fill:url(#SVGID_13_);" d="M43.389,10.014c0,0,2.957,0.986,4.368,0.726c0,0-0.849-0.28-1.176-0.574
			c-0.328-0.295-1.081-0.489-1.402-0.292c-0.321,0.197-0.443-0.284-0.803-0.104C44.018,9.95,43.389,10.014,43.389,10.014z"/>
		
			<linearGradient id="SVGID_14_" gradientUnits="userSpaceOnUse" x1="1917.8533" y1="29.8752" x2="1917.8533" y2="-31.6621" gradientTransform="matrix(1 0 0 1 -1880.2188 0)">
			<stop  offset="0" style="stop-color:#CAF1D8"/>
			<stop  offset="0.5054" style="stop-color:#7DEFA4"/>
			<stop  offset="1" style="stop-color:#2FBCA4"/>
		</linearGradient>
		<path style="fill:url(#SVGID_14_);" d="M39.209,9.804c0,0-2.272-0.177-3.148-0.753c0,0,0.651,0.053,0.955-0.052
			c0.304-0.105,0.867-0.022,1.027,0.202c0.16,0.224,0.379-0.066,0.57,0.158C38.804,9.583,39.209,9.804,39.209,9.804z"/>
	</g>
	<g>
		<g>
			<g>
				<path style="fill:#FFFFFF;" d="M44.688,56.958c0.353-0.18,0.703-0.366,1.047-0.561V25.736h-1.047V56.958z"/>
				<path style="fill:#FFFFFF;" d="M43.645,26.921l-0.996,0.323l8.241,25.422c0.286-0.261,0.566-0.529,0.841-0.802L43.645,26.921z"
					/>
				<path style="fill:#FFFFFF;" d="M36.162,59.69c0.392-0.058,0.78-0.129,1.167-0.203l10.452-32.243l-0.996-0.323L36.162,59.69z"/>
			</g>
			<linearGradient id="SVGID_15_" gradientUnits="userSpaceOnUse" x1="41.1595" y1="65.7416" x2="51.9821" y2="-25.7265">
				<stop  offset="0" style="stop-color:#CAF1D8"/>
				<stop  offset="0.5054" style="stop-color:#7DEFA4"/>
				<stop  offset="1" style="stop-color:#2FBCA4"/>
			</linearGradient>
			<path style="fill:url(#SVGID_15_);" d="M50.732,45.474H33.166c-0.984,0-1.714-0.912-1.499-1.872l7.573-33.744
				c0.157-0.701,0.78-1.2,1.499-1.2h17.566c0.984,0,1.714,0.912,1.499,1.872l-7.573,33.744
				C52.073,44.976,51.451,45.474,50.732,45.474z"/>
			<linearGradient id="SVGID_16_" gradientUnits="userSpaceOnUse" x1="55.0061" y1="63.8503" x2="40.8394" y2="26.517">
				<stop  offset="0" style="stop-color:#CAF1D8"/>
				<stop  offset="0.5054" style="stop-color:#7DEFA4"/>
				<stop  offset="1" style="stop-color:#2FBCA4"/>
			</linearGradient>
			<path style="fill:url(#SVGID_16_);" d="M52.742,21.605l-8.212,8.212c-0.362,0.362-0.969,0.276-1.217-0.171l-1.758-3.174
				c-0.275-0.496-0.942-0.602-1.357-0.217l-5.857,5.436l-2.673,11.91c-0.215,0.96,0.515,1.872,1.499,1.872h17.566
				c0.719,0,1.341-0.498,1.499-1.2l4.19-18.67l-2.262-3.821C53.858,21.277,53.159,21.188,52.742,21.605z"/>
			<g>
				<linearGradient id="SVGID_17_" gradientUnits="userSpaceOnUse" x1="68.2238" y1="42.7707" x2="55.0494" y2="23.5763">
					<stop  offset="0" style="stop-color:#FFFFFF"/>
					<stop  offset="0.84" style="stop-color:#CDDFEC"/>
				</linearGradient>
				<path style="fill:url(#SVGID_17_);" d="M53.584,21.374c-0.064-0.024-0.111-0.027-0.111-0.027L53.584,21.374z"/>
				<linearGradient id="SVGID_18_" gradientUnits="userSpaceOnUse" x1="49.9394" y1="62.2221" x2="49.9394" y2="32.3138">
					<stop  offset="0" style="stop-color:#CAF1D8"/>
					<stop  offset="0.5054" style="stop-color:#7DEFA4"/>
					<stop  offset="1" style="stop-color:#2FBCA4"/>
				</linearGradient>
				<path style="fill:url(#SVGID_18_);" d="M54.159,21.784c-0.107-0.181-0.265-0.307-0.443-0.378l-0.132-0.032
					c0.297,0.112,0.953,0.688-1.107,3.609c-2.502,3.549-5.877,7.915-1.978,7.827c3.898-0.088-3.375,10.636-7.041,12.663c0,0,0,0,0,0
					l7.274,0c0.719,0,1.341-0.498,1.499-1.2l4.19-18.67L54.159,21.784z"/>
			</g>
			<linearGradient id="SVGID_19_" gradientUnits="userSpaceOnUse" x1="47.0007" y1="36.5951" x2="41.153" y2="32.0129">
				<stop  offset="0" style="stop-color:#CAF1D8"/>
				<stop  offset="0.5054" style="stop-color:#7DEFA4"/>
				<stop  offset="1" style="stop-color:#2FBCA4"/>
			</linearGradient>
			<path style="fill:url(#SVGID_19_);" d="M44.53,29.818c-0.362,0.362-0.969,0.276-1.217-0.171l-1.758-3.174
				c-0.161-0.291-0.457-0.446-0.759-0.449c0,0,1.222,0.588-0.087,2.028c-1.309,1.44-3.36,3.84-0.96,3.622
				c2.4-0.218-4.626,5.431-2.575,4.689c2.051-0.742,7.877-7.067,9.011-8.201L44.53,29.818z"/>
			<linearGradient id="SVGID_20_" gradientUnits="userSpaceOnUse" x1="45.747" y1="25.2408" x2="48.2469" y2="-5.9257">
				<stop  offset="0" style="stop-color:#CAF1D8"/>
				<stop  offset="0.5054" style="stop-color:#7DEFA4"/>
				<stop  offset="1" style="stop-color:#2FBCA4"/>
			</linearGradient>
			<path style="fill:url(#SVGID_20_);" d="M44.729,18.928c0.692-1.198,1.905-1.793,2.71-1.328c0.805,0.465,0.896,1.813,0.205,3.011
				c-0.692,1.198-1.905,1.793-2.71,1.328C44.129,21.474,44.037,20.126,44.729,18.928z"/>
		</g>
		<g>
			<g>
				<path style="fill:#F9A141;" d="M38.221,36.916c0.227-0.414,0.224-0.891,0.038-1.287c-0.435,0.057-0.838,0.312-1.064,0.725
					c-0.226,0.414-0.224,0.891-0.038,1.287C37.592,37.585,37.994,37.33,38.221,36.916z"/>
				
					<linearGradient id="SVGID_21_" gradientUnits="userSpaceOnUse" x1="3341.2559" y1="-3256.0107" x2="3346.0103" y2="-3263.644" gradientTransform="matrix(-0.8772 -0.4802 0.4802 -0.8772 4535.2065 -1216.7004)">
					<stop  offset="0" style="stop-color:#FFFFFF;stop-opacity:0"/>
					<stop  offset="0.7962" style="stop-color:#000000"/>
				</linearGradient>
				<path style="opacity:0.49;fill:url(#SVGID_21_);stroke:#000000;stroke-miterlimit:10;" d="M37.091,37.473
					c0.015,0.046,0.033,0.09,0.052,0.134l0.029,0.031c0.429-0.061,0.825-0.313,1.049-0.722c0.226-0.412,0.224-0.887,0.04-1.282
					c-0.118,0.116-0.242,0.3-0.207,0.548c0.064,0.448,0.007,0.409-0.426,0.6C37.282,36.935,37.136,37.323,37.091,37.473z"/>
				<path style="fill:#38826D;" d="M37.179,37.468c-0.073-0.04-0.163-0.023-0.215,0.042c-0.602,0.744-1.639,2.394-2.718,4.366
					c-1.522,2.78-2.552,5.146-2.3,5.284c0.252,0.138,1.69-2.004,3.212-4.785c1.079-1.972,1.911-3.735,2.213-4.643
					c0.026-0.078-0.008-0.164-0.08-0.203L37.179,37.468z"/>
				<path style="fill:#80A096;" d="M36.379,38.727l0.283,0.155c0.076,0.041,0.134,0.103,0.172,0.174
					c0.242-0.536,0.426-0.988,0.538-1.324c0.026-0.078-0.008-0.164-0.08-0.203l-0.113-0.062c-0.073-0.04-0.163-0.023-0.215,0.042
					c-0.222,0.275-0.504,0.674-0.825,1.167C36.22,38.67,36.303,38.686,36.379,38.727z"/>
			</g>
			<g>
				<path id="XMLID_15_" style="fill:#F9AA8F;" d="M12.208,16.706c0,0,1.932-3.025,0.747-6.406c0,0,0.491-3.703,6.55-3.703
					l1.144,3.701c0.054,0.175,0.159,0.331,0.302,0.446l0.338,0.274c0.248,0.201,0.22,0.616,0.015,0.86
					c-0.755,0.895-0.249,2.454-1.517,3.416c-1.06,0.804-3.325-1.026-3.253,2.43C16.533,17.724,9.121,20.811,12.208,16.706z"/>
				<g>
					<linearGradient id="SVGID_22_" gradientUnits="userSpaceOnUse" x1="19.5716" y1="18.5659" x2="12.6397" y2="8.7252">
						<stop  offset="0" style="stop-color:#F78E6B"/>
						<stop  offset="1" style="stop-color:#F9AA8F"/>
					</linearGradient>
					<path style="fill:url(#SVGID_22_);" d="M21.445,11.584c-0.077,0.015-0.165,0.027-0.252,0.024
						c-0.243-0.007-0.511-0.325-0.48-0.588c0.015-0.13,0.053-0.297,0.087-0.433c-0.064-0.084-0.115-0.177-0.148-0.279L15.36,9.55
						l-2.055,2.349c0.259,2.68-1.097,4.806-1.097,4.806c-0.169,0.225-0.306,0.428-0.415,0.611l3.909,0.063
						c0,0-0.837-0.465-0.559-1.192c0.278-0.727,1.943-0.434,1.943-0.434l0.002,0c0.445-0.35,1.09-0.242,1.688-0.229l0.049-0.007
						c-1.149-0.075-0.989-1.544-0.897-2.595c0.108-1.238,0.805-1.857,1.733-1.965c0.928-0.108,1.248,1.759,1.248,1.759l0.002-0.003
						c0.08-0.31,0.19-0.598,0.392-0.837C21.373,11.794,21.42,11.691,21.445,11.584z"/>
				</g>
				<path style="fill:#F9AA8F;" d="M28.298,34.849c0,0,0.264-0.736,1.083-0.9c0.819-0.164,3.258-0.501,3.052-0.138
					c-0.206,0.363-3.056,1.319-3.356,1.45"/>
				<path style="fill:#304FA5;" d="M12.208,16.706c0,0-7.81,1.236-2.181,12.608c4.826,9.751,13.136,12.631,16.305,9.875
					c2.147-1.868,2.894-3.222,3.152-3.901c0.112-0.295-0.07-0.614-0.379-0.674c-0.422-0.081-1.11-0.36-1.736,0.203
					c-1.093,0.983-3.63,2.613-4.201,1.63"/>
				<path style="fill:#F9AA8F;" d="M30.537,44.605l1.858-1.272c0.262-0.179,0.577-0.265,0.893-0.239
					c0.424,0.034,0.984,0.095,1.075,0.216c0.528,0.697,0.388,2.121,0.157,2.138c-0.126,0.009-0.439-0.063-0.698-0.13
					c-0.241-0.063-0.494-0.015-0.7,0.124c-0.362,0.244-0.988,0.564-1.551,0.349"/>
				<path style="fill:#F9A141;" d="M14.664,40.726c1.354,4.289,1.365,9.12,0.714,13.804c2.038,1.506,4.289,2.74,6.698,3.654
					c2.987-8.651,2.808-15.823,2.808-15.823L14.664,40.726z"/>
				<linearGradient id="SVGID_23_" gradientUnits="userSpaceOnUse" x1="4.3181" y1="72.9158" x2="11.0681" y2="61.6659">
					<stop  offset="0" style="stop-color:#F9A141"/>
					<stop  offset="0.2222" style="stop-color:#F99B3A"/>
					<stop  offset="0.5508" style="stop-color:#F78926"/>
					<stop  offset="0.9436" style="stop-color:#F56D05"/>
					<stop  offset="1" style="stop-color:#F56800"/>
				</linearGradient>
				<path style="fill:url(#SVGID_23_);" d="M14.664,40.726c0.009,0.029,0.017,0.058,0.026,0.087c0.057,0.183,0.116,0.365,0.164,0.55
					c1.006,3.801,1.125,8.683,0.563,13.196c2.04,1.502,4.29,2.732,6.699,3.641c2.233-5.017,2.189-9.424,2.544-12.355l-3.574-4.091
					L14.664,40.726z"/>
				<path style="fill:#F9A141;" d="M14.664,40.447c4.833,5.86,7.631,12.456,9.25,18.362c2.069,0.623,4.238,1.015,6.479,1.141
					c0.069-11.944-2.461-20.762-2.461-20.762L14.664,40.447z"/>
				<linearGradient id="SVGID_24_" gradientUnits="userSpaceOnUse" x1="21.8746" y1="74.9095" x2="23.1246" y2="34.2846">
					<stop  offset="0" style="stop-color:#F9A141"/>
					<stop  offset="0.2222" style="stop-color:#F99B3A"/>
					<stop  offset="0.5508" style="stop-color:#F78926"/>
					<stop  offset="0.9436" style="stop-color:#F56D05"/>
					<stop  offset="1" style="stop-color:#F56800"/>
				</linearGradient>
				<path style="fill:url(#SVGID_24_);" d="M28.576,41.397l-12.069,1.429c3.641,4.999,5.908,10.721,7.317,15.958
					c0.503,0.153,1.013,0.29,1.528,0.415c0.056-2.529,0.457-4.571,1.58-5.285C30.443,51.681,28.581,41.424,28.576,41.397
					C28.576,41.398,28.576,41.398,28.576,41.397z"/>
				<path style="fill:#4C68B0;" d="M11.905,16.882c0,0-4.835,7.369-0.435,16.629c4.4,9.26-0.225,8.016,3.849,9.171
					c4.074,1.154,13.858,1.864,13.227-1.646c-0.631-3.51-7.877-14.162-8.064-16.867c-0.188-2.704-2.549-5.802-3.95-6.445
					C15.132,17.081,12.415,16.248,11.905,16.882z"/>
				<linearGradient id="SVGID_25_" gradientUnits="userSpaceOnUse" x1="4.7655" y1="41.8787" x2="47.8421" y2="3.1345">
					<stop  offset="0" style="stop-color:#4C68B0"/>
					<stop  offset="0.5908" style="stop-color:#3B50A6"/>
					<stop  offset="1" style="stop-color:#3345A2"/>
				</linearGradient>
				<path style="fill:url(#SVGID_25_);" d="M16.533,17.724c-1.4-0.643-4.118-1.476-4.628-0.842c0,0-4.835,7.369-0.435,16.629
					c4.4,9.26-0.225,8.016,3.849,9.171c1.99,0.564,5.341,1.021,8.177,0.933c-3.108-0.139-3.611-2.975-0.965-4.777
					c2.646-1.803-0.844-2.54-3.349-6.064c-2.506-3.524,4.314-2.009,4.314-2.009l0,0c-1.58-2.862-2.934-5.446-3.014-6.595
					C20.295,21.465,17.933,18.367,16.533,17.724z"/>
				<path style="fill:#4C68B0;" d="M15.423,19.434c0.527-1.047,0.69-2.124,1.614-1.403c1.511,1.179,4.818,4.197,5.754,7.994
					c1.539,6.242,7.498,16.955,9.326,16.932c1.828-0.023-0.657,3.435-1.357,2.971C30.095,45.487,9.962,30.283,15.423,19.434z"/>
			</g>
			<path style="fill:#DFECF4;" d="M34.241,33.558c0,0.48-2.284,0.565-4.018,0.565c-1.734,0-2.26-0.085-2.26-0.565
				c0-0.48,1.405-0.869,3.139-0.869C32.836,32.689,34.241,33.078,34.241,33.558z"/>
			<path style="fill:#F9A141;" d="M30.759,33.336c0,0.088-0.231,0.16-0.515,0.16c-0.285,0-0.515-0.072-0.515-0.16
				s0.231-0.16,0.515-0.16C30.529,33.176,30.759,33.248,30.759,33.336z"/>
			<path style="fill:#38826D;" d="M32.632,33.336c0,0.088-0.231,0.16-0.515,0.16c-0.285,0-0.515-0.072-0.515-0.16
				s0.231-0.16,0.515-0.16C32.401,33.176,32.632,33.248,32.632,33.336z"/>
		</g>
		<path style="fill:#8E241C;" d="M21.485,6.328c0.506,0.91,0.572,2.018,0.107,2.949c-0.304,0.609-0.842,1.189-1.791,1.232
			c-1.583,0.072-2.246,1.359-2.464,1.934c-0.063,0.166-0.223,0.274-0.4,0.274l0,0c-0.211,0-0.391-0.152-0.424-0.36
			c-0.058-0.367-0.183-0.918-0.427-1.182c-0.472-0.511-1.856-0.057-1.16,1.542c0.696,1.599-0.135,2.017-0.135,2.017h-1.756
			c0,0-3.416-5.444-2.194-8.137C12.064,3.903,19.388,2.554,21.485,6.328z"/>
		<linearGradient id="SVGID_26_" gradientUnits="userSpaceOnUse" x1="-2.259" y1="21.2525" x2="25.9636" y2="1.0139">
			<stop  offset="0" style="stop-color:#8E241C"/>
			<stop  offset="1" style="stop-color:#721A14"/>
		</linearGradient>
		<path style="fill:url(#SVGID_26_);" d="M16.431,4.005c-2.453,0.061-4.924,1.126-5.588,2.591c-1.222,2.693,2.194,8.137,2.194,8.137
			h1.756c0,0,0.831-0.418,0.135-2.017c-0.471-1.081,0.009-1.637,0.516-1.728l0,0c-0.644-0.186-1.785,0.743-1.785,0
			c0-0.743,2.011-1.826-0.124-3.992C11.495,4.929,16.018,4.078,16.431,4.005z"/>
	</g>
</g>
</svg>
