<?xml version="1.0" encoding="iso-8859-1"?>
<!-- Generator: Adobe Illustrator 23.0.2, SVG Export Plug-In . SVG Version: 6.00 Build 0)  -->
<svg version="1.1" id="Layer_1" xmlns="http://www.w3.org/2000/svg" xmlns:xlink="http://www.w3.org/1999/xlink" x="0px" y="0px"
	 viewBox="0 0 64 64" style="enable-background:new 0 0 64 64;" xml:space="preserve">
<g>
	<linearGradient id="SVGID_1_" gradientUnits="userSpaceOnUse" x1="32" y1="61.8333" x2="32" y2="27.6537">
		<stop  offset="0" style="stop-color:#CAF1D8"/>
		<stop  offset="0.5054" style="stop-color:#7DEFA4"/>
		<stop  offset="1" style="stop-color:#2FBCA4"/>
	</linearGradient>
	<circle style="fill:url(#SVGID_1_);" cx="32" cy="32" r="28"/>
	<g>
		<linearGradient id="SVGID_2_" gradientUnits="userSpaceOnUse" x1="34.6957" y1="66.0791" x2="34.6957" y2="-25.0853">
			<stop  offset="0" style="stop-color:#CAF1D8"/>
			<stop  offset="0.5054" style="stop-color:#7DEFA4"/>
			<stop  offset="1" style="stop-color:#2FBCA4"/>
		</linearGradient>
		<path style="fill:url(#SVGID_2_);" d="M32,60c15.464,0,28-12.536,28-28c0-1.196-0.084-2.371-0.229-3.527l-4.704-5.121
			c-0.956-1.041-2.57-1.122-3.626-0.183L33.263,39.333c-0.622,0.553-1.562,0.545-2.173-0.019l-4.609-4.249
			c-0.724-0.667-1.838-0.666-2.56,0.003L9.391,48.512C14.485,55.475,22.712,60,32,60z"/>
		<linearGradient id="SVGID_3_" gradientUnits="userSpaceOnUse" x1="18.0344" y1="68.2269" x2="18.0344" y2="11.6783">
			<stop  offset="0" style="stop-color:#CAF1D8"/>
			<stop  offset="0.5054" style="stop-color:#7DEFA4"/>
			<stop  offset="1" style="stop-color:#2FBCA4"/>
		</linearGradient>
		<path style="fill:url(#SVGID_3_);" d="M23.899,39.394c0.878-0.959,1.364-2.212,1.364-3.513v-0.222c0-0.69-0.822-1.068-1.333-0.603
			c-0.004,0.003-0.008,0.007-0.011,0.01L9.391,48.512c2.776,3.795,6.483,6.862,10.786,8.87l6.5-9.826l-2.854-3.326
			C22.622,42.831,22.655,40.755,23.899,39.394z"/>
		<linearGradient id="SVGID_4_" gradientUnits="userSpaceOnUse" x1="37.81" y1="72.501" x2="37.81" y2="7.3167">
			<stop  offset="0" style="stop-color:#CAF1D8"/>
			<stop  offset="0.5054" style="stop-color:#7DEFA4"/>
			<stop  offset="1" style="stop-color:#2FBCA4"/>
		</linearGradient>
		<path style="fill:url(#SVGID_4_);" d="M55.361,30.433c-1.376-1.871-2.118-4.132-2.118-6.455c0-0.924-1.091-1.432-1.787-0.823
			c-0.005,0.005-0.01,0.009-0.015,0.014L33.743,38.905L15.948,54.936C20.494,58.123,26.026,60,32,60
			c7.421,0,14.163-2.893,19.174-7.605l5.694-7.859c0.132-0.183,0.288-0.346,0.428-0.523c1.144-2.404,1.957-4.996,2.376-7.718
			L55.361,30.433z"/>
		<linearGradient id="SVGID_5_" gradientUnits="userSpaceOnUse" x1="42.6639" y1="66.8242" x2="42.6639" y2="46.2956">
			<stop  offset="0" style="stop-color:#CAF1D8"/>
			<stop  offset="0.5054" style="stop-color:#7DEFA4"/>
			<stop  offset="1" style="stop-color:#2FBCA4"/>
		</linearGradient>
		<path style="fill:url(#SVGID_5_);" d="M50.169,53.158c0.159-0.078,0.229-0.278,0.138-0.441l-0.905-1.63c0,0,0.001,0,0.001,0
			c0.147-0.034,0.221-0.2,0.148-0.332l-1.775-3.193c-0.042-0.076-0.152-0.076-0.194,0l-1.775,3.193
			c-0.073,0.132,0,0.298,0.148,0.332l0.001,0l-0.906,1.63c-0.091,0.163-0.021,0.363,0.138,0.441l-0.572,1.03l-0.326-0.586
			c0.001,0,0.002,0,0.002,0c0.147-0.034,0.221-0.2,0.148-0.332l-1.775-3.193c-0.042-0.076-0.152-0.076-0.194,0l-1.775,3.193
			c-0.073,0.132,0,0.298,0.148,0.332c0,0,0.001,0,0.002,0l-0.906,1.63c-0.091,0.163-0.021,0.363,0.138,0.441l-0.318,0.573
			l-0.366-0.659c0.092-0.045,0.132-0.161,0.08-0.256l-0.526-0.946l0.001,0c0.086-0.02,0.128-0.116,0.086-0.193l-1.03-1.854
			c-0.024-0.044-0.088-0.044-0.113,0l-1.03,1.854c-0.043,0.077,0,0.173,0.086,0.193l0.001,0l-0.526,0.946
			c-0.053,0.095-0.012,0.211,0.08,0.256l-0.689,1.24c-0.068,0.122-0.026,0.27,0.083,0.342l-0.87,1.565
			c-0.115,0.206,0,0.465,0.23,0.518c0.631,0.146,1.27,0.221,1.912,0.263c4.927-0.92,9.397-3.128,13.052-6.265L50.169,53.158z"/>
		<g>
			<linearGradient id="SVGID_6_" gradientUnits="userSpaceOnUse" x1="16.1318" y1="57.287" x2="16.1318" y2="52.6294">
				<stop  offset="0" style="stop-color:#CAF1D8"/>
				<stop  offset="0.5054" style="stop-color:#7DEFA4"/>
				<stop  offset="1" style="stop-color:#2FBCA4"/>
			</linearGradient>
			<path style="fill:url(#SVGID_6_);" d="M17.184,55.756l-0.359-0.646l0.001,0c0.085-0.02,0.128-0.116,0.086-0.193l-1.03-1.854
				c-0.024-0.044-0.088-0.044-0.113,0l-0.69,1.242C15.757,54.821,16.46,55.304,17.184,55.756z"/>
			<linearGradient id="SVGID_7_" gradientUnits="userSpaceOnUse" x1="27.7662" y1="66.6119" x2="27.7662" y2="46.4959">
				<stop  offset="0" style="stop-color:#CAF1D8"/>
				<stop  offset="0.5054" style="stop-color:#7DEFA4"/>
				<stop  offset="1" style="stop-color:#2FBCA4"/>
			</linearGradient>
			<path style="fill:url(#SVGID_7_);" d="M37.179,57.888l-0.689-1.24c0.092-0.045,0.133-0.161,0.08-0.256l-0.526-0.946l0.001,0
				c0.085-0.02,0.128-0.116,0.086-0.193L35.1,53.4c-0.025-0.044-0.088-0.044-0.113,0l-1.03,1.854c-0.043,0.077,0,0.173,0.086,0.193
				l0.001,0L33.681,56.1l-0.692-1.245c0.001,0,0.001,0,0.002,0c0.147-0.034,0.221-0.2,0.148-0.332l-1.775-3.193
				c-0.042-0.076-0.152-0.076-0.194,0l-1.775,3.193c-0.073,0.132,0,0.298,0.148,0.332c0,0,0.001,0,0.001,0l-0.479,0.861
				l-1.019-1.833c0.159-0.078,0.229-0.278,0.138-0.441l-0.906-1.63c0.001,0,0.001,0,0.002,0c0.147-0.034,0.221-0.2,0.148-0.332
				l-1.775-3.193c-0.042-0.076-0.152-0.076-0.194,0l-1.775,3.193c-0.073,0.132,0,0.298,0.148,0.332c0,0,0.001,0,0.001,0l-0.906,1.63
				c-0.091,0.163-0.021,0.363,0.138,0.441l-0.572,1.03l-0.326-0.586l0.002,0c0.147-0.034,0.221-0.2,0.147-0.332l-1.774-3.193
				c-0.042-0.076-0.152-0.076-0.194,0l-1.775,3.193c-0.073,0.132,0,0.298,0.148,0.332c0.001,0,0.002,0,0.002,0l-0.906,1.63
				c-0.029,0.052-0.037,0.108-0.035,0.163C21.951,58.582,26.809,60,32,60c1.971,0,3.894-0.206,5.749-0.593l-0.654-1.176
				C37.204,58.159,37.247,58.011,37.179,57.888z"/>
		</g>
	</g>
	<g>
		<linearGradient id="SVGID_8_" gradientUnits="userSpaceOnUse" x1="44.8239" y1="19.342" x2="44.8239" y2="-5.9879">
			<stop  offset="0" style="stop-color:#CAF1D8"/>
			<stop  offset="0.5054" style="stop-color:#7DEFA4"/>
			<stop  offset="1" style="stop-color:#2FBCA4"/>
		</linearGradient>
		<path style="fill:url(#SVGID_8_);" d="M48.427,9.331c-2.046,1.458-5.037,3.012-8.378,4.129c0,0,3.952-1.116,9.55-3.232
			C49.217,9.918,48.825,9.62,48.427,9.331z"/>
		<linearGradient id="SVGID_9_" gradientUnits="userSpaceOnUse" x1="50.2174" y1="24.3541" x2="50.2174" y2="-8.5784">
			<stop  offset="0" style="stop-color:#CAF1D8"/>
			<stop  offset="0.5054" style="stop-color:#7DEFA4"/>
			<stop  offset="1" style="stop-color:#2FBCA4"/>
		</linearGradient>
		<path style="fill:url(#SVGID_9_);" d="M54.028,14.726c-0.752,0.252-2.07,0.433-2.713,1.08c-0.805,0.809-3.258,1.805-6.032,2.191
			c0,0,4.534-0.415,9.867-1.747C54.795,15.728,54.418,15.222,54.028,14.726z"/>
		
			<linearGradient id="SVGID_10_" gradientUnits="userSpaceOnUse" x1="1343.5122" y1="29.8751" x2="1343.5122" y2="-31.6612" gradientTransform="matrix(-1 0 0 1 1364.2188 0)">
			<stop  offset="0" style="stop-color:#CAF1D8"/>
			<stop  offset="0.5054" style="stop-color:#7DEFA4"/>
			<stop  offset="1" style="stop-color:#2FBCA4"/>
		</linearGradient>
		<path style="fill:url(#SVGID_10_);" d="M32.474,18.97c0,0-4.605,0.86-7.29,0.295c-2.685-0.565-4.086,0.607-5.899-0.191
			c-1.813-0.798-3.368,0.251-3.878,1.009c-0.51,0.759-1.874,0.001-2.897,0.675c-1.023,0.675-3.57,0.615-3.57,0.615
			S16.706,23.843,32.474,18.97z"/>
		
			<linearGradient id="SVGID_11_" gradientUnits="userSpaceOnUse" x1="1338.7528" y1="29.8754" x2="1338.7528" y2="-31.6624" gradientTransform="matrix(-1 0 0 1 1364.2188 0)">
			<stop  offset="0" style="stop-color:#CAF1D8"/>
			<stop  offset="0.5054" style="stop-color:#7DEFA4"/>
			<stop  offset="1" style="stop-color:#2FBCA4"/>
		</linearGradient>
		<path style="fill:url(#SVGID_11_);" d="M31.995,13.362c0,0-2.533,0.594-4.071,0.217c-1.539-0.377-2.256,0.422-3.319-0.116
			c-1.063-0.538-1.874,0.178-2.116,0.694c-0.242,0.516-1.051,0.005-1.585,0.465c-0.534,0.46-1.966,0.426-1.966,0.426
			S23.436,16.705,31.995,13.362z"/>
		
			<linearGradient id="SVGID_12_" gradientUnits="userSpaceOnUse" x1="1352.3776" y1="29.8754" x2="1352.3776" y2="-31.6625" gradientTransform="matrix(-1 0 0 1 1364.2188 0)">
			<stop  offset="0" style="stop-color:#CAF1D8"/>
			<stop  offset="0.5054" style="stop-color:#7DEFA4"/>
			<stop  offset="1" style="stop-color:#2FBCA4"/>
		</linearGradient>
		<path style="fill:url(#SVGID_12_);" d="M8.056,16.087c0,0,5.173,0.85,7.57-0.205c0,0-1.485-0.237-2.076-0.701
			c-0.591-0.464-1.904-0.567-2.436-0.051c-0.531,0.515-0.788-0.4-1.388,0.096C9.128,15.721,8.056,16.087,8.056,16.087z"/>
		
			<linearGradient id="SVGID_13_" gradientUnits="userSpaceOnUse" x1="1327.0981" y1="29.8758" x2="1327.0981" y2="-31.663" gradientTransform="matrix(-1 0 0 1 1364.2188 0)">
			<stop  offset="0" style="stop-color:#CAF1D8"/>
			<stop  offset="0.5054" style="stop-color:#7DEFA4"/>
			<stop  offset="1" style="stop-color:#2FBCA4"/>
		</linearGradient>
		<path style="fill:url(#SVGID_13_);" d="M39.305,9.184c0,0-2.957,0.986-4.368,0.726c0,0,0.849-0.28,1.176-0.574
			c0.328-0.294,1.081-0.488,1.402-0.292c0.321,0.197,0.443-0.284,0.803-0.104C38.677,9.12,39.305,9.184,39.305,9.184z"/>
		
			<linearGradient id="SVGID_14_" gradientUnits="userSpaceOnUse" x1="1345.7926" y1="21.9351" x2="1345.7926" y2="-39.6018" gradientTransform="matrix(-1 0 0 1 1364.2188 0)">
			<stop  offset="0" style="stop-color:#CAF1D8"/>
			<stop  offset="0.5054" style="stop-color:#7DEFA4"/>
			<stop  offset="1" style="stop-color:#2FBCA4"/>
		</linearGradient>
		<path style="fill:url(#SVGID_14_);" d="M20.61,10.014c0,0-2.957,0.986-4.368,0.726c0,0,0.849-0.28,1.176-0.574
			c0.328-0.295,1.081-0.489,1.402-0.292c0.321,0.197,0.443-0.284,0.803-0.104C19.982,9.95,20.61,10.014,20.61,10.014z"/>
		
			<linearGradient id="SVGID_15_" gradientUnits="userSpaceOnUse" x1="1337.8533" y1="29.8752" x2="1337.8533" y2="-31.6621" gradientTransform="matrix(-1 0 0 1 1364.2188 0)">
			<stop  offset="0" style="stop-color:#CAF1D8"/>
			<stop  offset="0.5054" style="stop-color:#7DEFA4"/>
			<stop  offset="1" style="stop-color:#2FBCA4"/>
		</linearGradient>
		<path style="fill:url(#SVGID_15_);" d="M24.791,9.804c0,0,2.272-0.177,3.149-0.753c0,0-0.651,0.053-0.955-0.052
			c-0.304-0.105-0.867-0.022-1.027,0.202c-0.16,0.224-0.379-0.066-0.57,0.158C25.196,9.583,24.791,9.804,24.791,9.804z"/>
	</g>
	<g>
		<path id="XMLID_3507_" style="fill:#4C68B0;" d="M22.126,49.453l-0.506,1.619c-0.154,0.493,0.2,0.999,0.717,1.022
			c2.196,0.099,6.932,0.207,3.79-0.901c-0.701-0.247-2.381-1.052-2.542-1.74H22.126z"/>
		<g>
			<path style="fill:#DFECF4;" d="M40.721,33.647c-0.171,0-0.343-0.053-0.491-0.163c-0.363-0.271-0.438-0.786-0.166-1.149
				c1.036-1.388,2.643-2.209,4.524-2.312c1.826-0.1,3.7,0.493,5.276,1.67c0.363,0.271,0.438,0.786,0.166,1.149
				c-0.271,0.363-0.786,0.438-1.149,0.167c-1.269-0.947-2.762-1.425-4.203-1.346c-1.387,0.076-2.558,0.664-3.298,1.655
				C41.219,33.533,40.971,33.647,40.721,33.647z"/>
		</g>
		<path style="fill:#EA9781;" d="M39.556,29.901c0,0,2.535-0.263,2.983,0.409c0.448,0.671-0.593,2.775-1.035,2.104
			c-0.442-0.671-0.442-0.671-0.442-0.671s-0.96-0.39-1.506-0.503"/>
		<path style="fill:#1A172E;" d="M12.035,51.625c0.76-1.855,1.098-3.818,0.949-5.733c-0.231-2.977-1.582-5.482-3.805-7.053
			c-1.397-0.988-3.008-1.499-4.68-1.582c0.108,0.566,0.227,1.128,0.368,1.681c1.204,0.132,2.355,0.529,3.364,1.242
			c1.816,1.284,2.923,3.358,3.116,5.839c0.109,1.409-0.092,2.852-0.559,4.247C11.19,50.732,11.604,51.187,12.035,51.625z"/>
		<path id="XMLID_4_" style="fill:#EA9781;" d="M30.147,19.248c0,0,1.691,12.042,9.902,12.042v-1.295c0,0-5.138-1.977-5.138-11.284
			L30.147,19.248z"/>
		<path style="fill:#F9AA8F;" d="M41.682,15.621l-0.229-0.429c-0.165-0.308-0.253-0.652-0.256-1.001
			c-0.002-0.196-0.005-0.383-0.008-0.556c0-0.229,0-0.425-0.01-0.591c0.01-0.01,0.01-0.02,0-0.031c0-0.301-0.01-0.487-0.01-0.487
			c-0.031-0.053-0.063-0.093-0.114-0.136c-0.891-0.767-4.822,0.664-4.822,0.664l-0.053,0.581l-0.052,1.303
			c-0.013,0.333-0.303,0.587-0.634,0.556h0l-1.674,4.543l2.876-1.711c0.618-0.315,1.464-0.943,2.319-0.762
			c1.079,0.229,1.982,0.341,2.052-0.166c0.04-0.294,0.069-0.633,0.09-0.991c0.004-0.069,0.061-0.124,0.13-0.124l0,0
			C41.625,16.284,41.842,15.921,41.682,15.621z"/>
		<linearGradient id="SVGID_16_" gradientUnits="userSpaceOnUse" x1="41.2691" y1="20.9331" x2="35.9053" y2="12.5316">
			<stop  offset="0" style="stop-color:#F78E6B"/>
			<stop  offset="1" style="stop-color:#F9AA8F"/>
		</linearGradient>
		<path style="fill:url(#SVGID_16_);" d="M41.363,15.836c0.041-0.154-0.503-0.606-0.298-0.759c0.122-0.092,0.145-0.446,0.143-0.718
			c-0.005-0.056-0.011-0.111-0.012-0.167c0-0.055-0.001-0.108-0.002-0.162l-3.54-0.191l-1.633,1.409
			c-0.055,0.079-0.129,0.142-0.215,0.186l-0.426,0.368l-0.399,1.082l0.182,1.271c0,0,0.669-0.009,1.562-0.501
			c0.893-0.493,1.558-0.069,1.558-0.069l0.003,0c0.238-0.055,0.482-0.07,0.727-0.018c0.375,0.08,0.728,0.144,1.033,0.175
			c-0.42-0.098-0.817-0.479-0.817-1.376c0-0.899,0.626-0.877,1.262-0.928c0.636-0.051,0.675,0.928,0.675,0.928l0,0
			c0.02-0.047,0.066-0.08,0.119-0.08c0.185,0,0.331-0.109,0.403-0.255C41.601,16.12,41.322,15.988,41.363,15.836z"/>
		<path id="XMLID_3_" style="fill:#EA9781;" d="M16.242,29.977l7.888,9.146l-2.004,10.33h1.458c0,0,9.852-17.069-2.333-22.514
			L16.242,29.977z"/>
		<linearGradient id="SVGID_17_" gradientUnits="userSpaceOnUse" x1="21.253" y1="34.0418" x2="29.4904" y2="33.4397">
			<stop  offset="0" style="stop-color:#F78E6B"/>
			<stop  offset="1" style="stop-color:#F9AA8F"/>
		</linearGradient>
		<path style="fill:url(#SVGID_17_);" d="M21.717,27.161l-0.562-0.163l-4.913,2.979l3.011,3.491
			c1.634,0.615,3.269,1.008,4.426,1.238c0.653,0.13,0.878,0.947,0.386,1.394l-1.425,1.295l1.491,1.729l-0.346,1.785
			c1.279-0.802,2.532-1.741,3.497-2.787C27.641,33.898,26.555,29.554,21.717,27.161z"/>
		<path style="fill:#DB4337;" d="M43.206,35.845H23.615c-4.162,0-8.267,1.403-11.558,3.95l-5.378,4.162
			c0.286,0.605,0.596,1.196,0.924,1.777l5.661-4.38c2.948-2.281,6.625-3.538,10.352-3.538h16.718l-4.008,3.116
			c-5.556,4.319-12.491,6.698-19.529,6.698h-8.03c0.458,0.68,0.948,1.335,1.463,1.97h6.568c7.473,0,14.839-2.526,20.738-7.113
			l6.276-4.879c0.332-0.258,0.464-0.699,0.327-1.097C44.001,36.113,43.627,35.845,43.206,35.845z"/>
		<g>
			<linearGradient id="SVGID_18_" gradientUnits="userSpaceOnUse" x1="23.0383" y1="42.1563" x2="18.0946" y2="52.1188">
				<stop  offset="0" style="stop-color:#BB2D25"/>
				<stop  offset="1" style="stop-color:#DB4337"/>
			</linearGradient>
			<path style="fill:url(#SVGID_18_);" d="M28.45,45.41c0.001,0,0.002-0.001,0.002-0.002c-3.697,1.454-7.66,2.222-11.656,2.222
				h-3.919c-0.155,0.748-0.228,1.422-0.259,1.97h4.178c3.713,0,7.399-0.624,10.893-1.814C27.745,46.672,27.952,45.725,28.45,45.41z"
				/>
			<linearGradient id="SVGID_19_" gradientUnits="userSpaceOnUse" x1="20.3498" y1="36.9928" x2="33.1572" y2="36.9928">
				<stop  offset="0" style="stop-color:#BB2D25"/>
				<stop  offset="1" style="stop-color:#DB4337"/>
			</linearGradient>
			<path style="fill:url(#SVGID_19_);" d="M21.177,36.007c-0.005,0.001-0.011,0.002-0.016,0.002c0.08,0.023,1.027,0.343-0.811,2.13
				c1.073-0.212,2.167-0.324,3.265-0.324H33.1c0.102-0.701,0.074-1.371-0.134-1.97h-8.073L21.177,36.007z"/>
		</g>
		<circle style="fill:#1A172E;" cx="19.608" cy="47.675" r="3.366"/>
		<path id="XMLID_3517_" style="fill:#F9AA8F;" d="M19.722,43.533l-1.358-0.818l7.643-6.944c0.493-0.447,0.267-1.264-0.386-1.394
			c-3.293-0.655-10.463-2.622-10.463-7.328c0-0.934,0.103-1.805,0.301-2.593l8.95,2.593C41.614,35.595,19.722,43.533,19.722,43.533z
			"/>
		<linearGradient id="SVGID_20_" gradientUnits="userSpaceOnUse" x1="0.003" y1="47.6008" x2="51.7192" y2="20.5806">
			<stop  offset="0" style="stop-color:#F78E6B"/>
			<stop  offset="1" style="stop-color:#F9AA8F"/>
		</linearGradient>
		<path style="fill:url(#SVGID_20_);" d="M27.23,28.669l-6.749,1.713c0,0-0.323,0.856-0.79,2.12c2.08,0.995,4.414,1.574,5.929,1.875
			c0.653,0.13,0.878,0.947,0.386,1.394l-7.643,6.944l1.05,0.633c0.824-0.227,1.777-0.503,2.57-0.765
			c0.521-0.24,1.101-0.521,1.711-0.841c0.413-0.724,0.288-2.074,0.051-2.466c-0.255-0.422,3.167-2.463,4.069-4.105
			c0.902-1.642-1.313-2.354-1.313-2.354l2.625-2.625C28.616,29.69,27.988,29.181,27.23,28.669z"/>
		<path id="XMLID_3516_" style="fill:#4C68B0;" d="M35.551,15.503l-0.305,2.469c-0.178,1.439-1.098,2.679-2.424,3.265l-3.287,1.454
			c-2.061,0.912-3.819,2.393-5.068,4.269l-0.059,0.088l-8.95-2.593C18.125,13.587,35.551,15.503,35.551,15.503z"/>
		<linearGradient id="SVGID_21_" gradientUnits="userSpaceOnUse" x1="19.8747" y1="23.4207" x2="38.1364" y2="12.3546">
			<stop  offset="0" style="stop-color:#4C68B0"/>
			<stop  offset="0.5908" style="stop-color:#3B50A6"/>
			<stop  offset="1" style="stop-color:#3345A2"/>
		</linearGradient>
		<path style="fill:url(#SVGID_21_);" d="M15.459,24.456l1.613,0.467c0.942,0.241,4.216,0.947,5.243-0.617
			c1.204-1.834,0.438-3.448,3.19-3.831c2.752-0.383,3.521,2.457,3.521,2.457s2.156-7.301,3.825-5.83
			c1.669,1.47,2.025,1.02,2.247,1.075c0.062,0.015,0.11-0.071,0.147-0.2c0-0.002,0.001-0.003,0.001-0.005l0.117-0.946l0,0v0
			l0.188-1.523C35.551,15.503,18.125,13.587,15.459,24.456z"/>
		<linearGradient id="SVGID_22_" gradientUnits="userSpaceOnUse" x1="30.1843" y1="14.0619" x2="41.2003" y2="14.0619">
			<stop  offset="0" style="stop-color:#F9A141"/>
			<stop  offset="0.2222" style="stop-color:#F99B3A"/>
			<stop  offset="0.5508" style="stop-color:#F78926"/>
			<stop  offset="0.9436" style="stop-color:#F56D05"/>
			<stop  offset="1" style="stop-color:#F56800"/>
		</linearGradient>
		<path style="fill:url(#SVGID_22_);" d="M36.179,13.165c0,0-1.766,0.105-4.114-1c-2.349-1.106-2.809,2.185,0.429,3.455
			c3.237,1.269,4.284,0.068,4.877-0.418c0.592-0.487,2.494,0.285,3.164-0.28c0.67-0.565,0.613-0.951,0.666-1.756"/>
		<linearGradient id="SVGID_23_" gradientUnits="userSpaceOnUse" x1="40.6509" y1="16.3707" x2="30.4035" y2="11.0807">
			<stop  offset="0" style="stop-color:#F9A141"/>
			<stop  offset="0.2222" style="stop-color:#F99B3A"/>
			<stop  offset="0.5508" style="stop-color:#F78926"/>
			<stop  offset="0.9436" style="stop-color:#F56D05"/>
			<stop  offset="1" style="stop-color:#F56800"/>
		</linearGradient>
		<path style="fill:url(#SVGID_23_);" d="M32.065,12.164c-2.212-1.042-2.748,1.817-0.097,3.214c1.26,0.006-0.033-0.596-0.061-1.704
			c-0.027-1.108,2.422,0.082,3.38,1.108c0.802,0.859,1.853,0.501,2.174,0.362c0.025-0.013,0.05-0.025,0.077-0.036
			c0.013-0.006,0.021-0.01,0.021-0.01c-1.751-0.587-0.26-1.39,0.93-1.178c2.23,0.397,2.711-0.756,2.711-0.756h-5.021
			C36.179,13.165,34.413,13.27,32.065,12.164z"/>
		<path style="fill:#F9AA8F;" d="M33.807,19.244c0-1.591-1.29-2.879-2.879-2.879c-1.59,0-2.88,1.288-2.88,2.879
			c0,0.208,0.023,0.41,0.065,0.605l-0.001,0c0,0,3.071,13.941,11.445,13.941v-1.497C39.556,32.293,33.807,30.006,33.807,19.244z"/>
		<path id="XMLID_3510_" style="fill:#BE6E5F;" d="M41.199,13.165c0,0,0,0-0.011,0h-5.009l0.053-0.346c0,0,3.931-1.313,4.822-0.547
			c0.063,0.219,0.104,0.495,0.125,0.682c0.01,0.011,0.01-0.185,0-0.175C41.219,13.122,41.199,13.165,41.199,13.165z"/>
		<path id="XMLID_3509_" style="fill:#361F19;" d="M41.2,13.165c0,0,0.209-2.615-1.988-2.615c-1.06,0-4.735,2.615-3.451,2.615
			C37.358,13.165,39.948,13.165,41.2,13.165z"/>
		<path id="XMLID_3508_" style="fill:#4C68B0;" d="M18.784,42.305l-0.867,0.621c-0.632,0.453-0.531,1.421,0.181,1.733
			c2.415,1.061,6.483,2.713,4.139,0.712c-0.565-0.482-1.623-1.688-2.018-2.031L18.784,42.305z"/>
		<linearGradient id="SVGID_24_" gradientUnits="userSpaceOnUse" x1="16.242" y1="31.3576" x2="26.332" y2="31.3576">
			<stop  offset="0" style="stop-color:#6C3F36"/>
			<stop  offset="1" style="stop-color:#532C0A"/>
		</linearGradient>
		<path style="fill:url(#SVGID_24_);" d="M21.251,26.939l-5.009,3.038l4.654,5.396c0.441,0.511,1.222,0.54,1.699,0.063l3.736-3.736
			C25.426,29.773,23.836,28.094,21.251,26.939z"/>
		<path style="fill:#1A172E;" d="M19.546,35.251h-1.47c-0.65,0-1.177-0.527-1.177-1.177v-0.66c0-0.65,0.527-1.177,1.177-1.177h4.8
			c0.461,0,0.66,0.583,0.296,0.866l-2.094,1.624C20.64,35.066,20.101,35.251,19.546,35.251z"/>
		<path style="fill:#6C3F36;" d="M24.409,27.049l-8.947-2.592l-0.004,0.004c-0.197,0.787-0.3,1.656-0.3,2.588
			c0,4.039,5.28,6.059,8.859,6.965l4.433-4.433C27.452,28.748,26.125,27.902,24.409,27.049z"/>
		<linearGradient id="SVGID_25_" gradientUnits="userSpaceOnUse" x1="24.8974" y1="31.8196" x2="14.7396" y2="24.8825">
			<stop  offset="0" style="stop-color:#6C3F36"/>
			<stop  offset="1" style="stop-color:#532C0A"/>
		</linearGradient>
		<path style="fill:url(#SVGID_25_);" d="M15.458,24.461c-0.197,0.787-0.3,1.656-0.3,2.588c0,3.653,4.319,5.655,7.792,6.674
			c-3.633-1.254-4.552-4.556-1.157-4.669c3.707-0.123,2.615-2.006,2.615-2.006l-8.947-2.592L15.458,24.461z"/>
		<linearGradient id="SVGID_26_" gradientUnits="userSpaceOnUse" x1="24.314" y1="30.6017" x2="44.9764" y2="19.8062">
			<stop  offset="0" style="stop-color:#F78E6B"/>
			<stop  offset="1" style="stop-color:#F9AA8F"/>
		</linearGradient>
		<path style="fill:url(#SVGID_26_);" d="M31.637,23.379c0.735-2.012-2.67-2.979-1.973-5.225c0.672-2.168,2.547-1.469,2.676-1.418
			c-0.417-0.236-0.899-0.372-1.412-0.372c-1.59,0-2.88,1.288-2.88,2.879c0,0.208,0.023,0.41,0.065,0.605l-0.001,0
			c0,0,3.071,13.941,11.445,13.941C32.578,32.555,30.902,25.391,31.637,23.379z"/>
		<g>
			<path style="fill:#1A172E;" d="M47.503,60c-1.885,0-3.66-0.544-5.166-1.609c-2.222-1.571-3.573-4.076-3.805-7.053
				c-0.227-2.92,0.656-5.953,2.486-8.542c1.83-2.588,4.395-4.432,7.224-5.192c2.884-0.775,5.696-0.336,7.918,1.235
				c2.222,1.571,3.573,4.076,3.805,7.053c0.227,2.92-0.656,5.953-2.486,8.542l0,0c-1.83,2.588-4.395,4.432-7.224,5.192
				C49.325,59.876,48.401,60,47.503,60z M50.988,38.874c-0.755,0-1.532,0.105-2.319,0.316c-2.459,0.661-4.7,2.278-6.309,4.555
				c-1.609,2.276-2.387,4.928-2.19,7.467c0.193,2.482,1.299,4.555,3.115,5.839c1.816,1.284,4.14,1.636,6.544,0.99
				c2.459-0.661,4.7-2.278,6.309-4.554l0,0c1.609-2.276,2.387-4.928,2.19-7.467c-0.193-2.481-1.299-4.555-3.115-5.839
				C53.991,39.316,52.539,38.874,50.988,38.874z"/>
		</g>
		<g>
			<path style="fill:#DB4337;" d="M49.162,49.6c-3.932,0-7.131-4.116-7.131-9.175s3.199-9.175,7.131-9.175
				c0.544,0,0.985,0.441,0.985,0.985c0,0.544-0.441,0.985-0.985,0.985c-2.846,0-5.16,3.232-5.16,7.204s2.315,7.204,5.16,7.204
				c0.544,0,0.985,0.441,0.985,0.985C50.147,49.159,49.706,49.6,49.162,49.6z"/>
		</g>
		<g>
			<path style="fill:#DFECF4;" d="M39.828,35.228c-0.113,0-0.228-0.023-0.337-0.073c-0.413-0.187-0.597-0.673-0.41-1.086
				c0.741-1.64,2.187-2.834,4.074-3.36c1.833-0.512,3.871-0.329,5.738,0.514c0.413,0.187,0.597,0.673,0.41,1.086
				c-0.187,0.413-0.673,0.597-1.086,0.41c-1.517-0.685-3.158-0.837-4.621-0.429c-1.41,0.394-2.482,1.265-3.019,2.455
				C40.439,35.048,40.141,35.228,39.828,35.228z"/>
		</g>
		<path style="fill:#F9AA8F;" d="M39.556,32.293c0,0,2.837-0.294,3.338,0.457c0.501,0.751-0.664,3.105-1.159,2.354
			c-0.494-0.751-0.494-0.751-0.494-0.751s-1.535-0.483-2.145-0.61"/>
	</g>
</g>
</svg>
