<?xml version="1.0" encoding="iso-8859-1"?>
<!-- Generator: Adobe Illustrator 23.0.2, SVG Export Plug-In . SVG Version: 6.00 Build 0)  -->
<svg version="1.1" id="Layer_1" xmlns="http://www.w3.org/2000/svg" xmlns:xlink="http://www.w3.org/1999/xlink" x="0px" y="0px"
	 viewBox="0 0 64 64" style="enable-background:new 0 0 64 64;" xml:space="preserve">
<g>
	<linearGradient id="SVGID_1_" gradientUnits="userSpaceOnUse" x1="31.6456" y1="97.25" x2="31.6456" y2="9.1363">
		<stop  offset="0" style="stop-color:#CAF1D8"/>
		<stop  offset="0.5054" style="stop-color:#7DEFA4"/>
		<stop  offset="1" style="stop-color:#2FBCA4"/>
	</linearGradient>
	<circle style="fill:url(#SVGID_1_);" cx="31.646" cy="32" r="28"/>
	<g>
		<g>
			<linearGradient id="SVGID_2_" gradientUnits="userSpaceOnUse" x1="14.1787" y1="49.0596" x2="14.1787" y2="-11.2381">
				<stop  offset="0" style="stop-color:#CAF1D8"/>
				<stop  offset="0.5054" style="stop-color:#7DEFA4"/>
				<stop  offset="1" style="stop-color:#2FBCA4"/>
			</linearGradient>
			<path style="fill:url(#SVGID_2_);" d="M22.931,15.969H8.695C5.516,20.511,3.646,26.036,3.646,32c0,2.643,0.374,5.197,1.059,7.621
				h20.008v-21.87C24.712,16.767,23.914,15.969,22.931,15.969z"/>
			<g>
				
					<linearGradient id="SVGID_3_" gradientUnits="userSpaceOnUse" x1="1519.2524" y1="33.7608" x2="1519.2524" y2="-11.254" gradientTransform="matrix(1 0 0 1 -1504 0)">
					<stop  offset="0" style="stop-color:#CAF1D8"/>
					<stop  offset="0.5054" style="stop-color:#7DEFA4"/>
					<stop  offset="1" style="stop-color:#2FBCA4"/>
				</linearGradient>
				<path style="fill:url(#SVGID_3_);" d="M6.645,25.784c0,0,3.369,0.629,5.333,0.216c1.964-0.413,2.989,0.444,4.315-0.14
					c1.326-0.584,2.463,0.183,2.836,0.738c0.373,0.555,1.371,0,2.119,0.494c0.748,0.493,2.612,0.45,2.612,0.45
					S18.179,29.348,6.645,25.784z"/>
				
					<linearGradient id="SVGID_4_" gradientUnits="userSpaceOnUse" x1="1515.7709" y1="33.7609" x2="1515.7709" y2="-11.2543" gradientTransform="matrix(1 0 0 1 -1504 0)">
					<stop  offset="0" style="stop-color:#CAF1D8"/>
					<stop  offset="0.5054" style="stop-color:#7DEFA4"/>
					<stop  offset="1" style="stop-color:#2FBCA4"/>
				</linearGradient>
				<path style="fill:url(#SVGID_4_);" d="M6.995,21.681c0,0,1.853,0.434,2.978,0.158c1.126-0.276,1.65,0.308,2.428-0.085
					c0.778-0.394,1.371,0.13,1.548,0.508c0.177,0.378,0.769,0.003,1.16,0.34c0.391,0.337,1.439,0.311,1.439,0.311
					S13.255,24.127,6.995,21.681z"/>
				
					<linearGradient id="SVGID_5_" gradientUnits="userSpaceOnUse" x1="1525.7375" y1="33.7608" x2="1525.7375" y2="-11.254" gradientTransform="matrix(1 0 0 1 -1504 0)">
					<stop  offset="0" style="stop-color:#CAF1D8"/>
					<stop  offset="0.5054" style="stop-color:#7DEFA4"/>
					<stop  offset="1" style="stop-color:#2FBCA4"/>
				</linearGradient>
				<path style="fill:url(#SVGID_5_);" d="M24.506,23.674c0,0-3.784,0.622-5.538-0.15c0,0,1.086-0.173,1.519-0.513
					c0.433-0.34,1.393-0.414,1.782-0.037c0.389,0.377,0.577-0.293,1.015,0.07C23.722,23.407,24.506,23.674,24.506,23.674z"/>
				
					<linearGradient id="SVGID_6_" gradientUnits="userSpaceOnUse" x1="1515.1128" y1="33.7619" x2="1515.1128" y2="-11.2564" gradientTransform="matrix(1 0 0 1 -1504 0)">
					<stop  offset="0" style="stop-color:#CAF1D8"/>
					<stop  offset="0.5054" style="stop-color:#7DEFA4"/>
					<stop  offset="1" style="stop-color:#2FBCA4"/>
				</linearGradient>
				<path style="fill:url(#SVGID_6_);" d="M12.264,19.079c0,0-1.662-0.129-2.303-0.551c0,0,0.476,0.039,0.699-0.038
					c0.223-0.077,0.634-0.016,0.751,0.148c0.117,0.164,0.277-0.048,0.417,0.115C11.968,18.917,12.264,19.079,12.264,19.079z"/>
			</g>
			<linearGradient id="SVGID_7_" gradientUnits="userSpaceOnUse" x1="14.1787" y1="43.4575" x2="14.1787" y2="24.7012">
				<stop  offset="0" style="stop-color:#CAF1D8"/>
				<stop  offset="0.5054" style="stop-color:#7DEFA4"/>
				<stop  offset="1" style="stop-color:#2FBCA4"/>
			</linearGradient>
			<path style="fill:url(#SVGID_7_);" d="M20.17,26.972h-3.355c-1.7,0-3.078,1.378-3.078,3.078v1.834h-3.345
				c-0.338,0-0.612,0.274-0.612,0.612v2.972H5.56v-1.145c0-0.306-0.248-0.555-0.555-0.555H3.801v-4.571
				C3.709,30.121,3.646,31.052,3.646,32c0,2.643,0.374,5.197,1.059,7.621h20.008v-4.728H20.17V26.972z"/>
			
				<linearGradient id="SVGID_8_" gradientUnits="userSpaceOnUse" x1="1513.6469" y1="39.3572" x2="1513.6469" y2="22.2112" gradientTransform="matrix(1 0 0 1 -1504 0)">
				<stop  offset="0" style="stop-color:#CAF1D8"/>
				<stop  offset="0.5054" style="stop-color:#7DEFA4"/>
				<stop  offset="1" style="stop-color:#2FBCA4"/>
			</linearGradient>
			<path style="fill:url(#SVGID_8_);" d="M10.392,31.884c-0.338,0-0.612,0.274-0.612,0.612v2.972H5.56l-0.003,0.154
				c-0.028,1.501,1.181,2.732,2.681,2.732h1.82v-1.123h3.678v-5.347H10.392z"/>
		</g>
		<g>
			<linearGradient id="SVGID_9_" gradientUnits="userSpaceOnUse" x1="42.934" y1="49.0596" x2="42.934" y2="-11.2381">
				<stop  offset="0" style="stop-color:#CAF1D8"/>
				<stop  offset="0.5054" style="stop-color:#7DEFA4"/>
				<stop  offset="1" style="stop-color:#2FBCA4"/>
			</linearGradient>
			<path style="fill:url(#SVGID_9_);" d="M59.646,32c0-5.964-1.871-11.489-5.049-16.031H28.004c-0.984,0-1.781,0.797-1.781,1.781
				v21.87h32.365C59.271,37.197,59.646,34.643,59.646,32z"/>
			<g>
				<linearGradient id="SVGID_10_" gradientUnits="userSpaceOnUse" x1="52.2462" y1="35.3962" x2="52.2462" y2="-3.6858">
					<stop  offset="0" style="stop-color:#CAF1D8"/>
					<stop  offset="0.5054" style="stop-color:#7DEFA4"/>
					<stop  offset="1" style="stop-color:#2FBCA4"/>
				</linearGradient>
				<path style="fill:url(#SVGID_10_);" d="M56.932,20.006c-0.304-0.639-0.63-1.264-0.98-1.875c-0.173,0.14-0.339,0.301-0.485,0.515
					c-0.919,1.348-4.107,3.391-7.906,4.661C47.561,23.307,51.623,22.157,56.932,20.006z"/>
				<linearGradient id="SVGID_11_" gradientUnits="userSpaceOnUse" x1="55.5248" y1="32.4909" x2="55.5248" y2="5.7533">
					<stop  offset="0" style="stop-color:#CAF1D8"/>
					<stop  offset="0.5054" style="stop-color:#7DEFA4"/>
					<stop  offset="1" style="stop-color:#2FBCA4"/>
				</linearGradient>
				<path style="fill:url(#SVGID_11_);" d="M58.493,24.096c-0.117-0.398-0.241-0.792-0.375-1.182
					c-0.432,0.122-0.875,0.28-1.149,0.555c-0.589,0.592-2.383,1.32-4.412,1.603C52.557,25.072,55.175,24.832,58.493,24.096z"/>
				
					<linearGradient id="SVGID_12_" gradientUnits="userSpaceOnUse" x1="1538.5782" y1="40.444" x2="1538.5782" y2="-14.9567" gradientTransform="matrix(1 0 0 1 -1504 0)">
					<stop  offset="0" style="stop-color:#CAF1D8"/>
					<stop  offset="0.5054" style="stop-color:#7DEFA4"/>
					<stop  offset="1" style="stop-color:#2FBCA4"/>
				</linearGradient>
				<path style="fill:url(#SVGID_12_);" d="M43.186,25.784c0,0-3.369,0.629-5.333,0.216c-1.964-0.413-2.989,0.444-4.315-0.14
					c-1.326-0.584-2.463,0.183-2.836,0.738c-0.373,0.555-1.371,0-2.119,0.494c-0.748,0.493-2.612,0.45-2.612,0.45
					S31.652,29.348,43.186,25.784z"/>
				
					<linearGradient id="SVGID_13_" gradientUnits="userSpaceOnUse" x1="1536.4707" y1="40.4444" x2="1536.4707" y2="-14.9578" gradientTransform="matrix(1 0 0 1 -1504 0)">
					<stop  offset="0" style="stop-color:#CAF1D8"/>
					<stop  offset="0.5054" style="stop-color:#7DEFA4"/>
					<stop  offset="1" style="stop-color:#2FBCA4"/>
				</linearGradient>
				<path style="fill:url(#SVGID_13_);" d="M37.247,22.481c0,0-1.853,0.435-2.978,0.159c-1.125-0.276-1.65,0.308-2.428-0.085
					c-0.778-0.393-1.371,0.13-1.548,0.508c-0.177,0.378-0.769,0.003-1.16,0.34c-0.391,0.337-1.438,0.312-1.438,0.312
					S30.986,24.927,37.247,22.481z"/>
				
					<linearGradient id="SVGID_14_" gradientUnits="userSpaceOnUse" x1="1542.4805" y1="40.4442" x2="1542.4805" y2="-14.9568" gradientTransform="matrix(1 0 0 1 -1504 0)">
					<stop  offset="0" style="stop-color:#CAF1D8"/>
					<stop  offset="0.5054" style="stop-color:#7DEFA4"/>
					<stop  offset="1" style="stop-color:#2FBCA4"/>
				</linearGradient>
				<path style="fill:url(#SVGID_14_);" d="M35.78,19.317c0,0,3.832-0.132,5.401-1.233c0,0-1.099,0.043-1.59-0.205
					c-0.491-0.248-1.447-0.133-1.754,0.313c-0.307,0.446-0.623-0.174-0.982,0.268C36.496,18.902,35.78,19.317,35.78,19.317z"/>
				
					<linearGradient id="SVGID_15_" gradientUnits="userSpaceOnUse" x1="1550.5853" y1="40.4445" x2="1550.5853" y2="-14.9575" gradientTransform="matrix(1 0 0 1 -1504 0)">
					<stop  offset="0" style="stop-color:#CAF1D8"/>
					<stop  offset="0.5054" style="stop-color:#7DEFA4"/>
					<stop  offset="1" style="stop-color:#2FBCA4"/>
				</linearGradient>
				<path style="fill:url(#SVGID_15_);" d="M48.183,18.625c0,0-2.163,0.721-3.196,0.531c0,0,0.621-0.204,0.861-0.42
					c0.24-0.215,0.791-0.357,1.026-0.213c0.235,0.144,0.324-0.208,0.587-0.076C47.724,18.579,48.183,18.625,48.183,18.625z"/>
				
					<linearGradient id="SVGID_16_" gradientUnits="userSpaceOnUse" x1="1551.797" y1="40.4444" x2="1551.797" y2="-14.9576" gradientTransform="matrix(1 0 0 1 -1504 0)">
					<stop  offset="0" style="stop-color:#CAF1D8"/>
					<stop  offset="0.5054" style="stop-color:#7DEFA4"/>
					<stop  offset="1" style="stop-color:#2FBCA4"/>
				</linearGradient>
				<path style="fill:url(#SVGID_16_);" d="M49.395,25.04c0,0-2.163,0.721-3.196,0.531c0,0,0.621-0.204,0.861-0.42
					c0.239-0.215,0.791-0.357,1.026-0.213c0.235,0.144,0.324-0.208,0.587-0.076C48.935,24.994,49.395,25.04,49.395,25.04z"/>
				
					<linearGradient id="SVGID_17_" gradientUnits="userSpaceOnUse" x1="1533.8545" y1="40.4441" x2="1533.8545" y2="-14.9567" gradientTransform="matrix(1 0 0 1 -1504 0)">
					<stop  offset="0" style="stop-color:#CAF1D8"/>
					<stop  offset="0.5054" style="stop-color:#7DEFA4"/>
					<stop  offset="1" style="stop-color:#2FBCA4"/>
				</linearGradient>
				<path style="fill:url(#SVGID_17_);" d="M28.672,17.808c0,0,1.657,0.181,2.365-0.114c0,0-0.475-0.05-0.68-0.167
					c-0.205-0.117-0.62-0.133-0.766,0.006c-0.146,0.139-0.264-0.098-0.431,0.036C28.993,17.704,28.672,17.808,28.672,17.808z"/>
			</g>
			<linearGradient id="SVGID_18_" gradientUnits="userSpaceOnUse" x1="53.1135" y1="38.9429" x2="53.1135" y2="20.6284">
				<stop  offset="0" style="stop-color:#CAF1D8"/>
				<stop  offset="0.5054" style="stop-color:#7DEFA4"/>
				<stop  offset="1" style="stop-color:#2FBCA4"/>
			</linearGradient>
			<path style="fill:url(#SVGID_18_);" d="M59.646,32c0-1.571-0.136-3.109-0.384-4.609c-0.922,0.037-1.66,0.791-1.66,1.722v2.658
				h-1.231v4.013h-9.438l-0.351,3.836h12.006C59.271,37.197,59.646,34.643,59.646,32z"/>
			<linearGradient id="SVGID_19_" gradientUnits="userSpaceOnUse" x1="42.6407" y1="45.9352" x2="42.6407" y2="15.0658">
				<stop  offset="0" style="stop-color:#CAF1D8"/>
				<stop  offset="0.5054" style="stop-color:#7DEFA4"/>
				<stop  offset="1" style="stop-color:#2FBCA4"/>
			</linearGradient>
			<path style="fill:url(#SVGID_19_);" d="M59.059,37.72h-3.925V27.062c0-0.294-0.238-0.532-0.532-0.532h-6.936
				c-0.294,0-0.532,0.238-0.532,0.532v6.706h-1.204c-0.306,0-0.555,0.249-0.555,0.555v1.145h-4.22v-2.972
				c0-0.338-0.274-0.612-0.612-0.612h-3.345v-6.701c0-3.524-2.857-6.38-6.38-6.38h-0.053v16.091h-4.542v4.728h32.365
				C58.764,38.995,58.925,38.363,59.059,37.72z"/>
			<g>
				<g>
					
						<linearGradient id="SVGID_20_" gradientUnits="userSpaceOnUse" x1="3334.439" y1="41.5906" x2="3334.439" y2="13.5213" gradientTransform="matrix(-1 0 0 1 3387.834 0)">
						<stop  offset="0" style="stop-color:#CAF1D8"/>
						<stop  offset="0.5054" style="stop-color:#7DEFA4"/>
						<stop  offset="1" style="stop-color:#2FBCA4"/>
					</linearGradient>
					<path style="fill:url(#SVGID_20_);" d="M53.108,28.062h0.573c0.029,0,0.052-0.024,0.052-0.052v-0.573
						c0-0.029-0.024-0.052-0.052-0.052h-0.573c-0.029,0-0.052,0.024-0.052,0.052v0.573C53.056,28.038,53.08,28.062,53.108,28.062z"
						/>
					
						<linearGradient id="SVGID_21_" gradientUnits="userSpaceOnUse" x1="3335.613" y1="41.5906" x2="3335.613" y2="13.5213" gradientTransform="matrix(-1 0 0 1 3387.834 0)">
						<stop  offset="0" style="stop-color:#CAF1D8"/>
						<stop  offset="0.5054" style="stop-color:#7DEFA4"/>
						<stop  offset="1" style="stop-color:#2FBCA4"/>
					</linearGradient>
					<path style="fill:url(#SVGID_21_);" d="M51.934,28.062h0.573c0.029,0,0.052-0.024,0.052-0.052v-0.573
						c0-0.029-0.024-0.052-0.052-0.052h-0.573c-0.029,0-0.052,0.024-0.052,0.052v0.573C51.882,28.038,51.906,28.062,51.934,28.062z"
						/>
					
						<linearGradient id="SVGID_22_" gradientUnits="userSpaceOnUse" x1="3336.7871" y1="41.5906" x2="3336.7871" y2="13.5213" gradientTransform="matrix(-1 0 0 1 3387.834 0)">
						<stop  offset="0" style="stop-color:#CAF1D8"/>
						<stop  offset="0.5054" style="stop-color:#7DEFA4"/>
						<stop  offset="1" style="stop-color:#2FBCA4"/>
					</linearGradient>
					<path style="fill:url(#SVGID_22_);" d="M50.76,28.062h0.573c0.029,0,0.052-0.024,0.052-0.052v-0.573
						c0-0.029-0.024-0.052-0.052-0.052H50.76c-0.029,0-0.052,0.024-0.052,0.052v0.573C50.708,28.038,50.732,28.062,50.76,28.062z"/>
					
						<linearGradient id="SVGID_23_" gradientUnits="userSpaceOnUse" x1="3337.9609" y1="41.5906" x2="3337.9609" y2="13.5213" gradientTransform="matrix(-1 0 0 1 3387.834 0)">
						<stop  offset="0" style="stop-color:#CAF1D8"/>
						<stop  offset="0.5054" style="stop-color:#7DEFA4"/>
						<stop  offset="1" style="stop-color:#2FBCA4"/>
					</linearGradient>
					<path style="fill:url(#SVGID_23_);" d="M49.586,28.062h0.573c0.029,0,0.052-0.024,0.052-0.052v-0.573
						c0-0.029-0.024-0.052-0.052-0.052h-0.573c-0.029,0-0.052,0.024-0.052,0.052v0.573C49.534,28.038,49.558,28.062,49.586,28.062z"
						/>
					
						<linearGradient id="SVGID_24_" gradientUnits="userSpaceOnUse" x1="3339.135" y1="41.5906" x2="3339.135" y2="13.5213" gradientTransform="matrix(-1 0 0 1 3387.834 0)">
						<stop  offset="0" style="stop-color:#CAF1D8"/>
						<stop  offset="0.5054" style="stop-color:#7DEFA4"/>
						<stop  offset="1" style="stop-color:#2FBCA4"/>
					</linearGradient>
					<path style="fill:url(#SVGID_24_);" d="M48.412,28.062h0.573c0.029,0,0.052-0.024,0.052-0.052v-0.573
						c0-0.029-0.023-0.052-0.052-0.052h-0.573c-0.029,0-0.052,0.024-0.052,0.052v0.573C48.36,28.038,48.384,28.062,48.412,28.062z"
						/>
				</g>
				<g>
					
						<linearGradient id="SVGID_25_" gradientUnits="userSpaceOnUse" x1="3334.439" y1="41.5926" x2="3334.439" y2="13.5191" gradientTransform="matrix(-1 0 0 1 3387.834 0)">
						<stop  offset="0" style="stop-color:#CAF1D8"/>
						<stop  offset="0.5054" style="stop-color:#7DEFA4"/>
						<stop  offset="1" style="stop-color:#2FBCA4"/>
					</linearGradient>
					<path style="fill:url(#SVGID_25_);" d="M53.108,29.298h0.573c0.029,0,0.052-0.024,0.052-0.052v-0.573
						c0-0.029-0.024-0.052-0.052-0.052h-0.573c-0.029,0-0.052,0.024-0.052,0.052v0.573C53.056,29.275,53.08,29.298,53.108,29.298z"
						/>
					
						<linearGradient id="SVGID_26_" gradientUnits="userSpaceOnUse" x1="3335.613" y1="41.5926" x2="3335.613" y2="13.5191" gradientTransform="matrix(-1 0 0 1 3387.834 0)">
						<stop  offset="0" style="stop-color:#CAF1D8"/>
						<stop  offset="0.5054" style="stop-color:#7DEFA4"/>
						<stop  offset="1" style="stop-color:#2FBCA4"/>
					</linearGradient>
					<path style="fill:url(#SVGID_26_);" d="M51.934,29.298h0.573c0.029,0,0.052-0.024,0.052-0.052v-0.573
						c0-0.029-0.024-0.052-0.052-0.052h-0.573c-0.029,0-0.052,0.024-0.052,0.052v0.573C51.882,29.275,51.906,29.298,51.934,29.298z"
						/>
					
						<linearGradient id="SVGID_27_" gradientUnits="userSpaceOnUse" x1="3336.7871" y1="41.5926" x2="3336.7871" y2="13.5191" gradientTransform="matrix(-1 0 0 1 3387.834 0)">
						<stop  offset="0" style="stop-color:#CAF1D8"/>
						<stop  offset="0.5054" style="stop-color:#7DEFA4"/>
						<stop  offset="1" style="stop-color:#2FBCA4"/>
					</linearGradient>
					<path style="fill:url(#SVGID_27_);" d="M50.76,29.298h0.573c0.029,0,0.052-0.024,0.052-0.052v-0.573
						c0-0.029-0.024-0.052-0.052-0.052H50.76c-0.029,0-0.052,0.024-0.052,0.052v0.573C50.708,29.275,50.732,29.298,50.76,29.298z"/>
					
						<linearGradient id="SVGID_28_" gradientUnits="userSpaceOnUse" x1="3337.9609" y1="41.5926" x2="3337.9609" y2="13.5191" gradientTransform="matrix(-1 0 0 1 3387.834 0)">
						<stop  offset="0" style="stop-color:#CAF1D8"/>
						<stop  offset="0.5054" style="stop-color:#7DEFA4"/>
						<stop  offset="1" style="stop-color:#2FBCA4"/>
					</linearGradient>
					<path style="fill:url(#SVGID_28_);" d="M49.586,29.298h0.573c0.029,0,0.052-0.024,0.052-0.052v-0.573
						c0-0.029-0.024-0.052-0.052-0.052h-0.573c-0.029,0-0.052,0.024-0.052,0.052v0.573C49.534,29.275,49.558,29.298,49.586,29.298z"
						/>
					
						<linearGradient id="SVGID_29_" gradientUnits="userSpaceOnUse" x1="3339.135" y1="41.5926" x2="3339.135" y2="13.5191" gradientTransform="matrix(-1 0 0 1 3387.834 0)">
						<stop  offset="0" style="stop-color:#CAF1D8"/>
						<stop  offset="0.5054" style="stop-color:#7DEFA4"/>
						<stop  offset="1" style="stop-color:#2FBCA4"/>
					</linearGradient>
					<path style="fill:url(#SVGID_29_);" d="M48.412,29.298h0.573c0.029,0,0.052-0.024,0.052-0.052v-0.573
						c0-0.029-0.023-0.052-0.052-0.052h-0.573c-0.029,0-0.052,0.024-0.052,0.052v0.573C48.36,29.275,48.384,29.298,48.412,29.298z"
						/>
				</g>
				<g>
					
						<linearGradient id="SVGID_30_" gradientUnits="userSpaceOnUse" x1="3334.439" y1="41.5907" x2="3334.439" y2="13.5214" gradientTransform="matrix(-1 0 0 1 3387.834 0)">
						<stop  offset="0" style="stop-color:#CAF1D8"/>
						<stop  offset="0.5054" style="stop-color:#7DEFA4"/>
						<stop  offset="1" style="stop-color:#2FBCA4"/>
					</linearGradient>
					<path style="fill:url(#SVGID_30_);" d="M53.108,30.535h0.573c0.029,0,0.052-0.024,0.052-0.052V29.91
						c0-0.029-0.024-0.052-0.052-0.052h-0.573c-0.029,0-0.052,0.024-0.052,0.052v0.573C53.056,30.511,53.08,30.535,53.108,30.535z"
						/>
					
						<linearGradient id="SVGID_31_" gradientUnits="userSpaceOnUse" x1="3335.613" y1="41.5907" x2="3335.613" y2="13.5214" gradientTransform="matrix(-1 0 0 1 3387.834 0)">
						<stop  offset="0" style="stop-color:#CAF1D8"/>
						<stop  offset="0.5054" style="stop-color:#7DEFA4"/>
						<stop  offset="1" style="stop-color:#2FBCA4"/>
					</linearGradient>
					<path style="fill:url(#SVGID_31_);" d="M51.934,30.535h0.573c0.029,0,0.052-0.024,0.052-0.052V29.91
						c0-0.029-0.024-0.052-0.052-0.052h-0.573c-0.029,0-0.052,0.024-0.052,0.052v0.573C51.882,30.511,51.906,30.535,51.934,30.535z"
						/>
					
						<linearGradient id="SVGID_32_" gradientUnits="userSpaceOnUse" x1="3336.7871" y1="41.5907" x2="3336.7871" y2="13.5214" gradientTransform="matrix(-1 0 0 1 3387.834 0)">
						<stop  offset="0" style="stop-color:#CAF1D8"/>
						<stop  offset="0.5054" style="stop-color:#7DEFA4"/>
						<stop  offset="1" style="stop-color:#2FBCA4"/>
					</linearGradient>
					<path style="fill:url(#SVGID_32_);" d="M50.76,30.535h0.573c0.029,0,0.052-0.024,0.052-0.052V29.91
						c0-0.029-0.024-0.052-0.052-0.052H50.76c-0.029,0-0.052,0.024-0.052,0.052v0.573C50.708,30.511,50.732,30.535,50.76,30.535z"/>
					
						<linearGradient id="SVGID_33_" gradientUnits="userSpaceOnUse" x1="3337.9609" y1="41.5907" x2="3337.9609" y2="13.5214" gradientTransform="matrix(-1 0 0 1 3387.834 0)">
						<stop  offset="0" style="stop-color:#CAF1D8"/>
						<stop  offset="0.5054" style="stop-color:#7DEFA4"/>
						<stop  offset="1" style="stop-color:#2FBCA4"/>
					</linearGradient>
					<path style="fill:url(#SVGID_33_);" d="M49.586,30.535h0.573c0.029,0,0.052-0.024,0.052-0.052V29.91
						c0-0.029-0.024-0.052-0.052-0.052h-0.573c-0.029,0-0.052,0.024-0.052,0.052v0.573C49.534,30.511,49.558,30.535,49.586,30.535z"
						/>
					
						<linearGradient id="SVGID_34_" gradientUnits="userSpaceOnUse" x1="3339.135" y1="41.5907" x2="3339.135" y2="13.5214" gradientTransform="matrix(-1 0 0 1 3387.834 0)">
						<stop  offset="0" style="stop-color:#CAF1D8"/>
						<stop  offset="0.5054" style="stop-color:#7DEFA4"/>
						<stop  offset="1" style="stop-color:#2FBCA4"/>
					</linearGradient>
					<path style="fill:url(#SVGID_34_);" d="M48.412,30.535h0.573c0.029,0,0.052-0.024,0.052-0.052V29.91
						c0-0.029-0.023-0.052-0.052-0.052h-0.573c-0.029,0-0.052,0.024-0.052,0.052v0.573C48.36,30.511,48.384,30.535,48.412,30.535z"
						/>
				</g>
				<g>
					
						<linearGradient id="SVGID_35_" gradientUnits="userSpaceOnUse" x1="3334.439" y1="41.5923" x2="3334.439" y2="13.5188" gradientTransform="matrix(-1 0 0 1 3387.834 0)">
						<stop  offset="0" style="stop-color:#CAF1D8"/>
						<stop  offset="0.5054" style="stop-color:#7DEFA4"/>
						<stop  offset="1" style="stop-color:#2FBCA4"/>
					</linearGradient>
					<path style="fill:url(#SVGID_35_);" d="M53.108,31.772h0.573c0.029,0,0.052-0.024,0.052-0.052v-0.573
						c0-0.029-0.024-0.052-0.052-0.052h-0.573c-0.029,0-0.052,0.023-0.052,0.052v0.573C53.056,31.748,53.08,31.772,53.108,31.772z"
						/>
					
						<linearGradient id="SVGID_36_" gradientUnits="userSpaceOnUse" x1="3335.613" y1="41.5923" x2="3335.613" y2="13.5188" gradientTransform="matrix(-1 0 0 1 3387.834 0)">
						<stop  offset="0" style="stop-color:#CAF1D8"/>
						<stop  offset="0.5054" style="stop-color:#7DEFA4"/>
						<stop  offset="1" style="stop-color:#2FBCA4"/>
					</linearGradient>
					<path style="fill:url(#SVGID_36_);" d="M51.934,31.772h0.573c0.029,0,0.052-0.024,0.052-0.052v-0.573
						c0-0.029-0.024-0.052-0.052-0.052h-0.573c-0.029,0-0.052,0.023-0.052,0.052v0.573C51.882,31.748,51.906,31.772,51.934,31.772z"
						/>
					
						<linearGradient id="SVGID_37_" gradientUnits="userSpaceOnUse" x1="3336.7871" y1="41.5923" x2="3336.7871" y2="13.5188" gradientTransform="matrix(-1 0 0 1 3387.834 0)">
						<stop  offset="0" style="stop-color:#CAF1D8"/>
						<stop  offset="0.5054" style="stop-color:#7DEFA4"/>
						<stop  offset="1" style="stop-color:#2FBCA4"/>
					</linearGradient>
					<path style="fill:url(#SVGID_37_);" d="M50.76,31.772h0.573c0.029,0,0.052-0.024,0.052-0.052v-0.573
						c0-0.029-0.024-0.052-0.052-0.052H50.76c-0.029,0-0.052,0.023-0.052,0.052v0.573C50.708,31.748,50.732,31.772,50.76,31.772z"/>
					
						<linearGradient id="SVGID_38_" gradientUnits="userSpaceOnUse" x1="3337.9609" y1="41.5923" x2="3337.9609" y2="13.5188" gradientTransform="matrix(-1 0 0 1 3387.834 0)">
						<stop  offset="0" style="stop-color:#CAF1D8"/>
						<stop  offset="0.5054" style="stop-color:#7DEFA4"/>
						<stop  offset="1" style="stop-color:#2FBCA4"/>
					</linearGradient>
					<path style="fill:url(#SVGID_38_);" d="M49.586,31.772h0.573c0.029,0,0.052-0.024,0.052-0.052v-0.573
						c0-0.029-0.024-0.052-0.052-0.052h-0.573c-0.029,0-0.052,0.023-0.052,0.052v0.573C49.534,31.748,49.558,31.772,49.586,31.772z"
						/>
					
						<linearGradient id="SVGID_39_" gradientUnits="userSpaceOnUse" x1="3339.135" y1="41.5923" x2="3339.135" y2="13.5188" gradientTransform="matrix(-1 0 0 1 3387.834 0)">
						<stop  offset="0" style="stop-color:#CAF1D8"/>
						<stop  offset="0.5054" style="stop-color:#7DEFA4"/>
						<stop  offset="1" style="stop-color:#2FBCA4"/>
					</linearGradient>
					<path style="fill:url(#SVGID_39_);" d="M48.412,31.772h0.573c0.029,0,0.052-0.024,0.052-0.052v-0.573
						c0-0.029-0.023-0.052-0.052-0.052h-0.573c-0.029,0-0.052,0.023-0.052,0.052v0.573C48.36,31.748,48.384,31.772,48.412,31.772z"
						/>
				</g>
				<g>
					
						<linearGradient id="SVGID_40_" gradientUnits="userSpaceOnUse" x1="3334.439" y1="41.5909" x2="3334.439" y2="13.5215" gradientTransform="matrix(-1 0 0 1 3387.834 0)">
						<stop  offset="0" style="stop-color:#CAF1D8"/>
						<stop  offset="0.5054" style="stop-color:#7DEFA4"/>
						<stop  offset="1" style="stop-color:#2FBCA4"/>
					</linearGradient>
					<path style="fill:url(#SVGID_40_);" d="M53.108,33.008h0.573c0.029,0,0.052-0.024,0.052-0.052v-0.573
						c0-0.029-0.024-0.052-0.052-0.052h-0.573c-0.029,0-0.052,0.024-0.052,0.052v0.573C53.056,32.985,53.08,33.008,53.108,33.008z"
						/>
					
						<linearGradient id="SVGID_41_" gradientUnits="userSpaceOnUse" x1="3335.613" y1="41.5909" x2="3335.613" y2="13.5215" gradientTransform="matrix(-1 0 0 1 3387.834 0)">
						<stop  offset="0" style="stop-color:#CAF1D8"/>
						<stop  offset="0.5054" style="stop-color:#7DEFA4"/>
						<stop  offset="1" style="stop-color:#2FBCA4"/>
					</linearGradient>
					<path style="fill:url(#SVGID_41_);" d="M51.934,33.008h0.573c0.029,0,0.052-0.024,0.052-0.052v-0.573
						c0-0.029-0.024-0.052-0.052-0.052h-0.573c-0.029,0-0.052,0.024-0.052,0.052v0.573C51.882,32.985,51.906,33.008,51.934,33.008z"
						/>
					
						<linearGradient id="SVGID_42_" gradientUnits="userSpaceOnUse" x1="3336.7871" y1="41.5909" x2="3336.7871" y2="13.5215" gradientTransform="matrix(-1 0 0 1 3387.834 0)">
						<stop  offset="0" style="stop-color:#CAF1D8"/>
						<stop  offset="0.5054" style="stop-color:#7DEFA4"/>
						<stop  offset="1" style="stop-color:#2FBCA4"/>
					</linearGradient>
					<path style="fill:url(#SVGID_42_);" d="M50.76,33.008h0.573c0.029,0,0.052-0.024,0.052-0.052v-0.573
						c0-0.029-0.024-0.052-0.052-0.052H50.76c-0.029,0-0.052,0.024-0.052,0.052v0.573C50.708,32.985,50.732,33.008,50.76,33.008z"/>
					
						<linearGradient id="SVGID_43_" gradientUnits="userSpaceOnUse" x1="3337.9609" y1="41.5909" x2="3337.9609" y2="13.5215" gradientTransform="matrix(-1 0 0 1 3387.834 0)">
						<stop  offset="0" style="stop-color:#CAF1D8"/>
						<stop  offset="0.5054" style="stop-color:#7DEFA4"/>
						<stop  offset="1" style="stop-color:#2FBCA4"/>
					</linearGradient>
					<path style="fill:url(#SVGID_43_);" d="M49.586,33.008h0.573c0.029,0,0.052-0.024,0.052-0.052v-0.573
						c0-0.029-0.024-0.052-0.052-0.052h-0.573c-0.029,0-0.052,0.024-0.052,0.052v0.573C49.534,32.985,49.558,33.008,49.586,33.008z"
						/>
					
						<linearGradient id="SVGID_44_" gradientUnits="userSpaceOnUse" x1="3339.135" y1="41.5909" x2="3339.135" y2="13.5215" gradientTransform="matrix(-1 0 0 1 3387.834 0)">
						<stop  offset="0" style="stop-color:#CAF1D8"/>
						<stop  offset="0.5054" style="stop-color:#7DEFA4"/>
						<stop  offset="1" style="stop-color:#2FBCA4"/>
					</linearGradient>
					<path style="fill:url(#SVGID_44_);" d="M48.412,33.008h0.573c0.029,0,0.052-0.024,0.052-0.052v-0.573
						c0-0.029-0.023-0.052-0.052-0.052h-0.573c-0.029,0-0.052,0.024-0.052,0.052v0.573C48.36,32.985,48.384,33.008,48.412,33.008z"
						/>
				</g>
				<g>
					
						<linearGradient id="SVGID_45_" gradientUnits="userSpaceOnUse" x1="3334.439" y1="41.591" x2="3334.439" y2="13.5216" gradientTransform="matrix(-1 0 0 1 3387.834 0)">
						<stop  offset="0" style="stop-color:#CAF1D8"/>
						<stop  offset="0.5054" style="stop-color:#7DEFA4"/>
						<stop  offset="1" style="stop-color:#2FBCA4"/>
					</linearGradient>
					<path style="fill:url(#SVGID_45_);" d="M53.108,34.245h0.573c0.029,0,0.052-0.023,0.052-0.052V33.62
						c0-0.029-0.024-0.052-0.052-0.052h-0.573c-0.029,0-0.052,0.023-0.052,0.052v0.573C53.056,34.221,53.08,34.245,53.108,34.245z"
						/>
					
						<linearGradient id="SVGID_46_" gradientUnits="userSpaceOnUse" x1="3335.613" y1="41.591" x2="3335.613" y2="13.5216" gradientTransform="matrix(-1 0 0 1 3387.834 0)">
						<stop  offset="0" style="stop-color:#CAF1D8"/>
						<stop  offset="0.5054" style="stop-color:#7DEFA4"/>
						<stop  offset="1" style="stop-color:#2FBCA4"/>
					</linearGradient>
					<path style="fill:url(#SVGID_46_);" d="M51.934,34.245h0.573c0.029,0,0.052-0.023,0.052-0.052V33.62
						c0-0.029-0.024-0.052-0.052-0.052h-0.573c-0.029,0-0.052,0.023-0.052,0.052v0.573C51.882,34.221,51.906,34.245,51.934,34.245z"
						/>
					
						<linearGradient id="SVGID_47_" gradientUnits="userSpaceOnUse" x1="3336.7871" y1="41.591" x2="3336.7871" y2="13.5216" gradientTransform="matrix(-1 0 0 1 3387.834 0)">
						<stop  offset="0" style="stop-color:#CAF1D8"/>
						<stop  offset="0.5054" style="stop-color:#7DEFA4"/>
						<stop  offset="1" style="stop-color:#2FBCA4"/>
					</linearGradient>
					<path style="fill:url(#SVGID_47_);" d="M50.76,34.245h0.573c0.029,0,0.052-0.023,0.052-0.052V33.62
						c0-0.029-0.024-0.052-0.052-0.052H50.76c-0.029,0-0.052,0.023-0.052,0.052v0.573C50.708,34.221,50.732,34.245,50.76,34.245z"/>
					
						<linearGradient id="SVGID_48_" gradientUnits="userSpaceOnUse" x1="3337.9609" y1="41.591" x2="3337.9609" y2="13.5216" gradientTransform="matrix(-1 0 0 1 3387.834 0)">
						<stop  offset="0" style="stop-color:#CAF1D8"/>
						<stop  offset="0.5054" style="stop-color:#7DEFA4"/>
						<stop  offset="1" style="stop-color:#2FBCA4"/>
					</linearGradient>
					<path style="fill:url(#SVGID_48_);" d="M49.586,34.245h0.573c0.029,0,0.052-0.023,0.052-0.052V33.62
						c0-0.029-0.024-0.052-0.052-0.052h-0.573c-0.029,0-0.052,0.023-0.052,0.052v0.573C49.534,34.221,49.558,34.245,49.586,34.245z"
						/>
					
						<linearGradient id="SVGID_49_" gradientUnits="userSpaceOnUse" x1="3339.135" y1="41.591" x2="3339.135" y2="13.5216" gradientTransform="matrix(-1 0 0 1 3387.834 0)">
						<stop  offset="0" style="stop-color:#CAF1D8"/>
						<stop  offset="0.5054" style="stop-color:#7DEFA4"/>
						<stop  offset="1" style="stop-color:#2FBCA4"/>
					</linearGradient>
					<path style="fill:url(#SVGID_49_);" d="M48.412,34.245h0.573c0.029,0,0.052-0.023,0.052-0.052V33.62
						c0-0.029-0.023-0.052-0.052-0.052h-0.573c-0.029,0-0.052,0.023-0.052,0.052v0.573C48.36,34.221,48.384,34.245,48.412,34.245z"
						/>
				</g>
				<g>
					
						<linearGradient id="SVGID_50_" gradientUnits="userSpaceOnUse" x1="3334.439" y1="41.5912" x2="3334.439" y2="13.5206" gradientTransform="matrix(-1 0 0 1 3387.834 0)">
						<stop  offset="0" style="stop-color:#CAF1D8"/>
						<stop  offset="0.5054" style="stop-color:#7DEFA4"/>
						<stop  offset="1" style="stop-color:#2FBCA4"/>
					</linearGradient>
					<path style="fill:url(#SVGID_50_);" d="M53.108,35.482h0.573c0.029,0,0.052-0.023,0.052-0.052v-0.573
						c0-0.029-0.024-0.052-0.052-0.052h-0.573c-0.029,0-0.052,0.023-0.052,0.052v0.573C53.056,35.458,53.08,35.482,53.108,35.482z"
						/>
					
						<linearGradient id="SVGID_51_" gradientUnits="userSpaceOnUse" x1="3335.613" y1="41.5912" x2="3335.613" y2="13.5206" gradientTransform="matrix(-1 0 0 1 3387.834 0)">
						<stop  offset="0" style="stop-color:#CAF1D8"/>
						<stop  offset="0.5054" style="stop-color:#7DEFA4"/>
						<stop  offset="1" style="stop-color:#2FBCA4"/>
					</linearGradient>
					<path style="fill:url(#SVGID_51_);" d="M51.934,35.482h0.573c0.029,0,0.052-0.023,0.052-0.052v-0.573
						c0-0.029-0.024-0.052-0.052-0.052h-0.573c-0.029,0-0.052,0.023-0.052,0.052v0.573C51.882,35.458,51.906,35.482,51.934,35.482z"
						/>
					
						<linearGradient id="SVGID_52_" gradientUnits="userSpaceOnUse" x1="3336.7871" y1="41.5912" x2="3336.7871" y2="13.5206" gradientTransform="matrix(-1 0 0 1 3387.834 0)">
						<stop  offset="0" style="stop-color:#CAF1D8"/>
						<stop  offset="0.5054" style="stop-color:#7DEFA4"/>
						<stop  offset="1" style="stop-color:#2FBCA4"/>
					</linearGradient>
					<path style="fill:url(#SVGID_52_);" d="M50.76,35.482h0.573c0.029,0,0.052-0.023,0.052-0.052v-0.573
						c0-0.029-0.024-0.052-0.052-0.052H50.76c-0.029,0-0.052,0.023-0.052,0.052v0.573C50.708,35.458,50.732,35.482,50.76,35.482z"/>
					
						<linearGradient id="SVGID_53_" gradientUnits="userSpaceOnUse" x1="3337.9609" y1="41.5912" x2="3337.9609" y2="13.5206" gradientTransform="matrix(-1 0 0 1 3387.834 0)">
						<stop  offset="0" style="stop-color:#CAF1D8"/>
						<stop  offset="0.5054" style="stop-color:#7DEFA4"/>
						<stop  offset="1" style="stop-color:#2FBCA4"/>
					</linearGradient>
					<path style="fill:url(#SVGID_53_);" d="M49.586,35.482h0.573c0.029,0,0.052-0.023,0.052-0.052v-0.573
						c0-0.029-0.024-0.052-0.052-0.052h-0.573c-0.029,0-0.052,0.023-0.052,0.052v0.573C49.534,35.458,49.558,35.482,49.586,35.482z"
						/>
					
						<linearGradient id="SVGID_54_" gradientUnits="userSpaceOnUse" x1="3339.135" y1="41.5912" x2="3339.135" y2="13.5206" gradientTransform="matrix(-1 0 0 1 3387.834 0)">
						<stop  offset="0" style="stop-color:#CAF1D8"/>
						<stop  offset="0.5054" style="stop-color:#7DEFA4"/>
						<stop  offset="1" style="stop-color:#2FBCA4"/>
					</linearGradient>
					<path style="fill:url(#SVGID_54_);" d="M48.412,35.482h0.573c0.029,0,0.052-0.023,0.052-0.052v-0.573
						c0-0.029-0.023-0.052-0.052-0.052h-0.573c-0.029,0-0.052,0.023-0.052,0.052v0.573C48.36,35.458,48.384,35.482,48.412,35.482z"
						/>
				</g>
				<g>
					
						<linearGradient id="SVGID_55_" gradientUnits="userSpaceOnUse" x1="3334.439" y1="41.5912" x2="3334.439" y2="13.5206" gradientTransform="matrix(-1 0 0 1 3387.834 0)">
						<stop  offset="0" style="stop-color:#CAF1D8"/>
						<stop  offset="0.5054" style="stop-color:#7DEFA4"/>
						<stop  offset="1" style="stop-color:#2FBCA4"/>
					</linearGradient>
					<path style="fill:url(#SVGID_55_);" d="M53.108,36.718h0.573c0.029,0,0.052-0.023,0.052-0.052v-0.573
						c0-0.029-0.024-0.052-0.052-0.052h-0.573c-0.029,0-0.052,0.023-0.052,0.052v0.573C53.056,36.695,53.08,36.718,53.108,36.718z"
						/>
					
						<linearGradient id="SVGID_56_" gradientUnits="userSpaceOnUse" x1="3335.613" y1="41.5912" x2="3335.613" y2="13.5206" gradientTransform="matrix(-1 0 0 1 3387.834 0)">
						<stop  offset="0" style="stop-color:#CAF1D8"/>
						<stop  offset="0.5054" style="stop-color:#7DEFA4"/>
						<stop  offset="1" style="stop-color:#2FBCA4"/>
					</linearGradient>
					<path style="fill:url(#SVGID_56_);" d="M51.934,36.718h0.573c0.029,0,0.052-0.023,0.052-0.052v-0.573
						c0-0.029-0.024-0.052-0.052-0.052h-0.573c-0.029,0-0.052,0.023-0.052,0.052v0.573C51.882,36.695,51.906,36.718,51.934,36.718z"
						/>
					
						<linearGradient id="SVGID_57_" gradientUnits="userSpaceOnUse" x1="3336.7871" y1="41.5912" x2="3336.7871" y2="13.5206" gradientTransform="matrix(-1 0 0 1 3387.834 0)">
						<stop  offset="0" style="stop-color:#CAF1D8"/>
						<stop  offset="0.5054" style="stop-color:#7DEFA4"/>
						<stop  offset="1" style="stop-color:#2FBCA4"/>
					</linearGradient>
					<path style="fill:url(#SVGID_57_);" d="M50.76,36.718h0.573c0.029,0,0.052-0.023,0.052-0.052v-0.573
						c0-0.029-0.024-0.052-0.052-0.052H50.76c-0.029,0-0.052,0.023-0.052,0.052v0.573C50.708,36.695,50.732,36.718,50.76,36.718z"/>
					
						<linearGradient id="SVGID_58_" gradientUnits="userSpaceOnUse" x1="3337.9609" y1="41.5912" x2="3337.9609" y2="13.5206" gradientTransform="matrix(-1 0 0 1 3387.834 0)">
						<stop  offset="0" style="stop-color:#CAF1D8"/>
						<stop  offset="0.5054" style="stop-color:#7DEFA4"/>
						<stop  offset="1" style="stop-color:#2FBCA4"/>
					</linearGradient>
					<path style="fill:url(#SVGID_58_);" d="M49.586,36.718h0.573c0.029,0,0.052-0.023,0.052-0.052v-0.573
						c0-0.029-0.024-0.052-0.052-0.052h-0.573c-0.029,0-0.052,0.023-0.052,0.052v0.573C49.534,36.695,49.558,36.718,49.586,36.718z"
						/>
					
						<linearGradient id="SVGID_59_" gradientUnits="userSpaceOnUse" x1="3339.135" y1="41.5912" x2="3339.135" y2="13.5206" gradientTransform="matrix(-1 0 0 1 3387.834 0)">
						<stop  offset="0" style="stop-color:#CAF1D8"/>
						<stop  offset="0.5054" style="stop-color:#7DEFA4"/>
						<stop  offset="1" style="stop-color:#2FBCA4"/>
					</linearGradient>
					<path style="fill:url(#SVGID_59_);" d="M48.412,36.718h0.573c0.029,0,0.052-0.023,0.052-0.052v-0.573
						c0-0.029-0.023-0.052-0.052-0.052h-0.573c-0.029,0-0.052,0.023-0.052,0.052v0.573C48.36,36.695,48.384,36.718,48.412,36.718z"
						/>
				</g>
			</g>
			
				<linearGradient id="SVGID_60_" gradientUnits="userSpaceOnUse" x1="3346.5464" y1="39.3572" x2="3346.5464" y2="22.2112" gradientTransform="matrix(-1 0 0 1 3387.834 0)">
				<stop  offset="0" style="stop-color:#CAF1D8"/>
				<stop  offset="0.5054" style="stop-color:#7DEFA4"/>
				<stop  offset="1" style="stop-color:#2FBCA4"/>
			</linearGradient>
			<path style="fill:url(#SVGID_60_);" d="M40.542,31.884c0.338,0,0.612,0.274,0.612,0.612v2.972h4.22l0.003,0.154
				c0.028,1.501-1.181,2.732-2.681,2.732h-1.82v-1.123h-3.678v-5.347H40.542z"/>
			
				<linearGradient id="SVGID_61_" gradientUnits="userSpaceOnUse" x1="3327.6313" y1="28.379" x2="3327.6313" y2="28.0585" gradientTransform="matrix(-1 0 0 1 3387.834 0)">
				<stop  offset="0" style="stop-color:#CAF1D8"/>
				<stop  offset="0.5054" style="stop-color:#7DEFA4"/>
				<stop  offset="1" style="stop-color:#2FBCA4"/>
			</linearGradient>
			<path style="opacity:0.49;fill:url(#SVGID_61_);" d="M60.343,28.208c0.039,0.011-0.029,0.066-0.11,0.121
				c-0.001-0.001-0.001-0.002-0.002-0.003l-0.064-0.015c-0.047-0.011-0.087-0.036-0.117-0.069
				C60.052,28.242,60.264,28.186,60.343,28.208z"/>
		</g>
	</g>
	<linearGradient id="SVGID_62_" gradientUnits="userSpaceOnUse" x1="23.7856" y1="3.3978" x2="23.7856" y2="9.2037">
		<stop  offset="0" style="stop-color:#CAF1D8"/>
		<stop  offset="0.5054" style="stop-color:#7DEFA4"/>
		<stop  offset="1" style="stop-color:#2FBCA4"/>
	</linearGradient>
	<path style="fill:url(#SVGID_62_);" d="M22.587,6.109c-1.691,0.525-2.905,2.132-2.835,4.011c0.08,2.117,1.815,3.828,3.933,3.879
		c2.275,0.055,4.136-1.772,4.136-4.035c0-1.801-1.18-3.327-2.809-3.846c-0.501-0.16-0.859-0.569-0.973-1.063
		c-0.178,0.05-0.358,0.098-0.534,0.152C23.36,5.628,23.029,5.972,22.587,6.109z"/>
	
		<linearGradient id="SVGID_63_" gradientUnits="userSpaceOnUse" x1="1527.7856" y1="13.5" x2="1527.7856" y2="-0.8446" gradientTransform="matrix(1 0 0 1 -1504 0)">
		<stop  offset="0" style="stop-color:#CAF1D8"/>
		<stop  offset="0.5054" style="stop-color:#7DEFA4"/>
		<stop  offset="1" style="stop-color:#2FBCA4"/>
	</linearGradient>
	<path style="fill:url(#SVGID_63_);" d="M27.822,9.964c0,2.229-1.807,4.036-4.036,4.036s-4.036-1.807-4.036-4.036
		c0-2.229,1.807-4.036,4.036-4.036S27.822,7.735,27.822,9.964z"/>
	<g>
		<g>
			<path style="fill:#15154C;" d="M39.63,47.901c0,0-15.779,1.33-17.44,10.458C25.144,59.419,28.327,60,31.646,60
				c6.287,0,12.089-2.072,16.763-5.57c0.942-6.534-0.104-13.779-0.104-13.779L39.63,47.901z"/>
			<linearGradient id="SVGID_64_" gradientUnits="userSpaceOnUse" x1="51.844" y1="47.2266" x2="34.0181" y2="52.9326">
				<stop  offset="0" style="stop-color:#1C1651"/>
				<stop  offset="1" style="stop-color:#130F38"/>
			</linearGradient>
			<path style="fill:url(#SVGID_64_);" d="M39.63,47.901c0,0-2.65,0.224-5.892,1.115c-0.27,0.867,0.156,1.461,1.686,1.564
				c5.713,0.386,5.941,5.757,2.882,8.616c3.712-0.906,7.136-2.546,10.102-4.767c0.942-6.534-0.104-13.779-0.104-13.779L39.63,47.901
				z"/>
			<linearGradient id="SVGID_65_" gradientUnits="userSpaceOnUse" x1="6.3261" y1="12.7595" x2="68.9513" y2="58.7595">
				<stop  offset="0" style="stop-color:#AF3E5E"/>
				<stop  offset="0.957" style="stop-color:#000741"/>
			</linearGradient>
			<path style="fill:url(#SVGID_65_);" d="M28.359,19.054c0,0-2.759,7.418-2.599,13.012c0.164,5.741-1.347,12.925-1.962,15.972
				c-0.616,3.048,22.689,4.115,24.535-1.148c1.847-5.263,0.624-31.6-9.645-32.066"/>
			<linearGradient id="SVGID_66_" gradientUnits="userSpaceOnUse" x1="74.6085" y1="54.1181" x2="-6.6415" y2="9.9931">
				<stop  offset="0" style="stop-color:#AF3E5E"/>
				<stop  offset="0.957" style="stop-color:#000741"/>
			</linearGradient>
			<path style="fill:url(#SVGID_66_);" d="M29.971,50.315c-0.009,0.001-0.017,0.002-0.026,0.003
				c6.87,0.743,17.185,0.002,18.389-3.428c1.847-5.263,0.624-31.6-9.645-32.066l-6.939,2.842l-1.609,7.225
				c0,0,7.355,8.372,3.896,13.503c-3.459,5.13,1.06,6.396,4.036,7.524C41.048,47.046,36.541,49.787,29.971,50.315z"/>
			<path style="fill:#00A887;" d="M48.201,9.423c-0.46,0.723-0.734,1.225-0.734,1.225L31.734,35.17
				c-0.388,0.604-1.069,0.948-1.786,0.916c-2.286-0.101-4.314,0.296-5.433,1.456c-2.664,2.759-2.596,6.453-2.596,6.453l-0.011,1.026
				c0,0-0.058,2.468-3.88,3.782c-2.013,0.692-4.186,1.68-6.277,2.896C16.825,56.823,23.864,60,31.646,60
				c0.659,0,1.311-0.031,1.959-0.076c-0.032-3.573,0.095-6.583,2.945-8.035c6.369-3.244,6.818-10.905,2.626-13.231
				c-0.305-0.169-0.629-0.334-0.969-0.493c-1.036-0.486-1.44-1.752-0.894-2.757l9.717-17.882c0.207-0.381,0.571-0.665,0.999-0.736
				c0.273-0.046,0.598-0.176,0.875-0.5c0.458-0.534,1.997-2.244,3.681-2.871C51.27,11.939,49.801,10.598,48.201,9.423z"/>
			<path style="fill:#00A887;" d="M39.307,31.74l7.723-14.213c0.207-0.381,0.571-0.665,0.999-0.736
				c0.273-0.046,0.598-0.176,0.875-0.5c0.616-0.718,3.188-3.569,5.438-3.041c2.737,0.642,4.104-6.604,0.821-8.663
				c-3.283-2.059-7.695,6.06-7.695,6.06L34.627,30.661C36.232,30.929,37.794,31.292,39.307,31.74z"/>
			<path style="fill:#00A887;" d="M29.892,40.326c1.358,0.77,3.404,0.217,5.77,2.616c2.363,2.398,6.242,1.27,5.203,4.833
				c1.828-3.381,1.198-7.345-1.505-9.003l-9.468-0.833C29.892,37.939,28.534,39.556,29.892,40.326z"/>
			<linearGradient id="SVGID_67_" gradientUnits="userSpaceOnUse" x1="54.6812" y1="13.0212" x2="33.7499" y2="14.9707">
				<stop  offset="0" style="stop-color:#00A887"/>
				<stop  offset="1" style="stop-color:#256351"/>
			</linearGradient>
			<path style="fill:url(#SVGID_67_);" d="M48.03,16.791c0.273-0.046,0.598-0.176,0.875-0.5c0.616-0.718,3.188-3.569,5.438-3.041
				c0.31,0.073,0.601,0.04,0.871-0.071c-0.385,0.101-0.901-0.131-1.032-1.015c-0.161-1.086,1.539-2.517-0.462-2.825
				c-2.001-0.308-6.689,8.188-6.689,8.188C47.238,17.146,47.601,16.863,48.03,16.791z"/>
			<g>
				<linearGradient id="SVGID_68_" gradientUnits="userSpaceOnUse" x1="38.2758" y1="33.2598" x2="47.7322" y2="49.639">
					<stop  offset="0" style="stop-color:#00A887"/>
					<stop  offset="1" style="stop-color:#256351"/>
				</linearGradient>
				<polygon style="fill:url(#SVGID_68_);" points="38.383,33.441 38.381,33.445 38.383,33.441 				"/>
				<g>
					<linearGradient id="SVGID_69_" gradientUnits="userSpaceOnUse" x1="28.457" y1="42.3093" x2="47.3361" y2="75.0095">
						<stop  offset="0" style="stop-color:#00A887"/>
						<stop  offset="1" style="stop-color:#256351"/>
					</linearGradient>
					<path style="fill:url(#SVGID_69_);" d="M39.176,38.659c-0.305-0.169-0.629-0.334-0.969-0.493
						c-1.021-0.479-1.426-1.714-0.915-2.712l-12.801,23.62C26.775,59.676,29.172,60,31.646,60c0.659,0,1.311-0.031,1.959-0.076
						c-0.032-3.573,0.095-6.583,2.945-8.035C42.919,48.646,43.368,40.985,39.176,38.659z"/>
					<linearGradient id="SVGID_70_" gradientUnits="userSpaceOnUse" x1="20.6662" y1="41.4719" x2="32.6659" y2="62.2563">
						<stop  offset="0" style="stop-color:#00A887"/>
						<stop  offset="1" style="stop-color:#256351"/>
					</linearGradient>
					<path style="fill:url(#SVGID_70_);" d="M17.694,56.273l14.04-21.103c-0.388,0.604-1.069,0.948-1.786,0.916
						c-2.286-0.101-3.304,0.694-4.423,1.853c-2.664,2.759-3.606,6.056-3.606,6.056l-0.011,1.026c0,0-0.058,2.468-3.88,3.782
						c-2.059,0.708-4.124,1.796-6.013,3.157C13.711,53.627,15.619,55.077,17.694,56.273z"/>
				</g>
				<linearGradient id="SVGID_71_" gradientUnits="userSpaceOnUse" x1="29.0381" y1="38.5901" x2="62.0375" y2="95.7477">
					<stop  offset="0" style="stop-color:#0D3D61"/>
					<stop  offset="1" style="stop-color:#053559"/>
				</linearGradient>
				<path style="fill:url(#SVGID_71_);" d="M33.363,46.074c-7.191,0.442-13.024,0.731-13.029,0.644
					c-0.005-0.087-1.999-0.358,5.191-0.801c7.191-0.442,20.843-0.887,20.848-0.801C46.378,45.203,40.553,45.632,33.363,46.074z"/>
			</g>
			<path style="fill:#F9AA8F;" d="M21.835,44.892c0,0,2.506-0.975,2.899-0.718c0.393,0.257,0.94,2.455,0.752,2.698
				c-0.188,0.243-1.206,1.23-1.368,0.807l-0.004-0.01c-0.117-0.304-0.417-0.493-0.743-0.476c-0.53,0.028-1.403-0.004-2.605-0.303
				c-2.12-0.527-0.616-2.665-0.616-2.665"/>
			<linearGradient id="SVGID_72_" gradientUnits="userSpaceOnUse" x1="18.2944" y1="41.5754" x2="31.1278" y2="6.5754">
				<stop  offset="0" style="stop-color:#AF3E5E"/>
				<stop  offset="0.957" style="stop-color:#000741"/>
			</linearGradient>
			<path style="fill:url(#SVGID_72_);" d="M27.812,19.993c0,0-13.817,10.534-14.091,18.058c-0.274,7.524,7.046,8.838,7.046,8.838
				s-0.395-1.177,1.068-1.998c0,0-6.13-6.977,5.977-12.19"/>
			<path style="fill:#F9AA8F;" d="M38.817,12.164c0,0-0.607,2.528,1.274,3.485c1.799,0.916-3.203,6.486-8.165,9.666
				c-0.607,0.389-1.417,0.196-1.785-0.425c-0.601-1.015-1.262-2.645-0.721-4.351"/>
			<linearGradient id="SVGID_73_" gradientUnits="userSpaceOnUse" x1="37.9985" y1="25.6047" x2="28.7128" y2="13.3435">
				<stop  offset="0" style="stop-color:#F78E6B"/>
				<stop  offset="1" style="stop-color:#F9AA8F"/>
			</linearGradient>
			<path style="fill:url(#SVGID_73_);" d="M37.662,18.522c-0.683-1.337-0.77-4.053-0.77-4.053l-5.502,4.314L29.42,20.54
				c-0.541,1.706,0.12,3.335,0.721,4.35c0.368,0.621,1.177,0.815,1.785,0.425c1.587-1.017,3.176-2.278,4.547-3.554
				C36.613,21.616,38.317,19.804,37.662,18.522z"/>
			<linearGradient id="SVGID_74_" gradientUnits="userSpaceOnUse" x1="3.4178" y1="16.7191" x2="66.0427" y2="62.719">
				<stop  offset="0" style="stop-color:#AF3E5E"/>
				<stop  offset="0.957" style="stop-color:#000741"/>
			</linearGradient>
			<path style="fill:url(#SVGID_74_);" d="M27.812,32.702V19.993c0,0-10.92,8.326-13.536,15.461
				c1.905-3.432,4.097,0.461,3.943,3.179c-0.154,2.719,3.616,6.259,3.616,6.259S15.705,37.914,27.812,32.702z"/>
			<g>
				<path style="fill:#F9AA8F;" d="M29.732,7.95c0,0,1.094,3.044,0.618,5.328c-0.476,2.283,3.235,3.901,5.994,2.378
					c2.759-1.522,3.71-6.945,1.903-8.562C36.439,5.477,30.446,4.145,29.732,7.95z"/>
				<linearGradient id="SVGID_75_" gradientUnits="userSpaceOnUse" x1="31.5939" y1="15.3438" x2="35.0824" y2="2.8259">
					<stop  offset="0" style="stop-color:#F78E6B"/>
					<stop  offset="1" style="stop-color:#F9AA8F"/>
				</linearGradient>
				<path style="fill:url(#SVGID_75_);" d="M34.452,7.151c0,0-2.296-0.417-4.005-0.656c-0.348,0.366-0.6,0.844-0.715,1.455
					c0,0,0.164,0.457,0.337,1.149l0,0c0,0,0.919,0.052,1.125,0.54c0.205,0.487,0.043,1.352-0.077,2.078
					c-0.06,0.365-0.129,0.231-0.388,0.282c-0.26,0.051-0.183,0.462,0,0.564c0.183,0.103,0.639,0.502,0.873-0.198
					c0.233-0.7-0.151-2.598,0.977-2.701c1.129-0.103,2.591,1.154,1.975,2.206c-0.616,1.052-1.254,0.852-1.991,0.685
					c-0.736-0.167,1.247,2.932,1.247,2.932l2.052-1.34v-3.713l-0.18-2.309L34.452,7.151z"/>
				<path style="fill:#F27C1C;" d="M30.86,12.366c-0.233,0.019-0.423,0.194-0.472,0.423c-0.202,0.957-0.889,3.562-2.657,5.495
					c-2.206,2.411,0.513,4.515,3.54,4.822c3.027,0.308,6.002-1.91,5.695-6.855c-0.308-4.945,0.205-7.305,0.923-6.741
					c0.448,0.352,0.337,1.085,0.19,1.585c-0.093,0.317,0.04,0.655,0.324,0.823l0.413,0.245c0,0,1.432-3.064,0.714-5.526
					c-0.718-2.463-6.27-2.925-8.773-2.257c-2.565,0.684-3.437,0.103-2.873,2.411c0.564,2.309,4.016,1.859,4.823,1.642
					c1.076-0.29,3.42-0.53,2.805,2.787c-0.616,3.318-1.231,3.694-1.437,2.702C33.886,13.003,32.535,12.228,30.86,12.366z"/>
				<g>
					<linearGradient id="SVGID_76_" gradientUnits="userSpaceOnUse" x1="47.6198" y1="21.095" x2="73.2448" y2="33.095">
						<stop  offset="0" style="stop-color:#F56800"/>
						<stop  offset="0.0564" style="stop-color:#F56D05"/>
						<stop  offset="0.4492" style="stop-color:#F78926"/>
						<stop  offset="0.7778" style="stop-color:#F99B3A"/>
						<stop  offset="1" style="stop-color:#F9A141"/>
					</linearGradient>
					<path style="fill:url(#SVGID_76_);" d="M36.966,16.251c-0.308-4.945,0.205-7.305,0.923-6.741
						c0.448,0.352,0.337,1.085,0.19,1.585c-0.093,0.317,0.04,0.655,0.324,0.823l0.413,0.245c0,0,0.994-2.129,0.91-4.264
						c-0.011,0.421-0.183,0.703-0.719,0.037c-0.697-0.866-2.74-2.386-2.45-1.193c0.29,1.193-2.579-1.709-3.385-1.58
						c-0.806,0.129,1.354,1.225,0,2.515c-1.216,1.158-2.875,0.905-3.201,0.841c1.104,0.215,2.303,0.031,2.737-0.086
						c1.076-0.29,3.42-0.53,2.805,2.787c-0.616,3.318-1.231,3.694-1.437,2.702c-0.19-0.92-1.541-1.695-3.216-1.557
						c-0.098,0.008-0.187,0.045-0.262,0.1c0.747-0.113,1.543,0.854,0.994,2.241c-0.548,1.386,2.224,1.257,2.86,3.772
						c0.635,2.514-3.468,4.591-3.469,4.592c0.096,0.014,0.192,0.025,0.289,0.035C34.298,23.414,37.274,21.196,36.966,16.251z"/>
				</g>
			</g>
			<linearGradient id="SVGID_77_" gradientUnits="userSpaceOnUse" x1="9.8131" y1="8.012" x2="72.4385" y2="54.0122">
				<stop  offset="0" style="stop-color:#AF3E5E"/>
				<stop  offset="0.957" style="stop-color:#000741"/>
			</linearGradient>
			<path style="fill:url(#SVGID_77_);" d="M45.423,20.486l-5.391,9.921c0,0,5.736,1.865,3.786,5.251
				c-1.949,3.386-8.394,1.334-8.394,1.334l-1.853,2.155c0,0,11.787,7.901,16.404,0C54.592,31.245,45.423,20.486,45.423,20.486z"/>
			<path style="fill:#F9AA8F;" d="M35.424,36.991c0,0-0.053-0.068-0.943-0.958c-0.889-0.889-2.565-1.351-3.112-0.864
				c-0.547,0.487-1.957,2.683-1.68,3.073c0.111,0.156,0.303,0.187,0.494,0.168c0.51-0.05,1.024-0.014,1.51,0.151l2.053,0.698
				C33.747,39.259,35.424,38.901,35.424,36.991z"/>
			<path style="fill:#00A887;" d="M48.72,6.191c0,0.39-0.316,0.707-0.707,0.707c-0.39,0-0.707-0.316-0.707-0.707
				c0-0.39,0.316-0.707,0.707-0.707C48.404,5.484,48.72,5.801,48.72,6.191z"/>
			<path style="fill:#00A887;" d="M47.031,8.507c0,0.39-0.316,0.707-0.707,0.707c-0.39,0-0.707-0.316-0.707-0.707
				c0-0.39,0.316-0.707,0.707-0.707C46.714,7.8,47.031,8.117,47.031,8.507z"/>
			<path style="fill:#00A887;" d="M45.341,10.823c0,0.39-0.316,0.707-0.707,0.707c-0.39,0-0.707-0.316-0.707-0.707
				c0-0.39,0.316-0.707,0.707-0.707C45.024,10.116,45.341,10.432,45.341,10.823z"/>
			<path style="fill:#00A887;" d="M59.479,11.832c0,0.39-0.316,0.707-0.707,0.707c-0.39,0-0.707-0.316-0.707-0.707
				c0-0.39,0.316-0.707,0.707-0.707C59.162,11.125,59.479,11.441,59.479,11.832z"/>
			<path style="fill:#00A887;" d="M57.789,14.147c0,0.39-0.316,0.707-0.707,0.707c-0.39,0-0.707-0.316-0.707-0.707
				c0-0.39,0.316-0.707,0.707-0.707C57.473,13.441,57.789,13.757,57.789,14.147z"/>
			<path style="fill:#00A887;" d="M56.099,16.463c0,0.39-0.316,0.707-0.707,0.707c-0.39,0-0.707-0.316-0.707-0.707
				c0-0.39,0.316-0.707,0.707-0.707C55.783,15.756,56.099,16.073,56.099,16.463z"/>
		</g>
	</g>
</g>
</svg>
