<?xml version="1.0" encoding="UTF-8"?>
<svg width="70px" height="124px" viewBox="0 0 70 124" version="1.1" xmlns="http://www.w3.org/2000/svg" xmlns:xlink="http://www.w3.org/1999/xlink">
    <title>Crystal_Shard</title>
    <defs>
        <linearGradient x1="55.9359612%" y1="77.9781784%" x2="44.5069969%" y2="-9.5098456%" id="linearGradient-1">
            <stop stop-color="#CC5697" offset="0%"></stop>
            <stop stop-color="#E585BE" offset="100%"></stop>
        </linearGradient>
    </defs>
    <g id="Page-1" stroke="none" stroke-width="1" fill="none" fill-rule="evenodd">
        <g id="30-Fantasy-and-Role-Play-Game-Icons" transform="translate(-202.000000, -965.000000)" fill-rule="nonzero">
            <g id="Crystal_Shard" transform="translate(202.000000, 965.000000)">
                <polygon id="Path" fill="#5B153E" points="42.6566304 0.00579674797 20.2477536 21.7244472 11.1183333 56.3643008 24.950942 112.172366 44.5932971 123.994203 48.1899275 111.347715 55.6593841 32.7211301"></polygon>
                <polygon id="Path" fill="url(#linearGradient-1)" points="55.6593841 32.7211301 41.8267754 17.8756585 22.7375725 44.267748 44.5932971 123.994203 48.1899275 111.347967"></polygon>
                <polygon id="Path" fill="#F49FD3" points="55.6593841 32.7211301 55.6593841 32.7211301 42.6566304 0.00579674797 41.8267754 17.8756585"></polygon>
                <polygon id="Path" fill="#A03774" points="41.8267754 17.8756585 42.6566304 0.00579674797 20.2477536 21.7244472 22.7375725 44.267748"></polygon>
                <polygon id="Path" fill="#A03774" points="22.7375725 44.267748 24.950942 112.172366 44.5932971 123.994203"></polygon>
                <path d="M4.51880435,9.50969106 C4.51880435,9.50969106 5.16452899,15.7127154 0.0702536232,18.5647154 C0.0702536232,18.5647154 5.16452899,20.2286341 5.45163043,26.241374 C5.45163043,26.241374 5.66695652,19.3490407 9.61282609,17.2813659 C9.61282609,17.2813659 5.16452899,15.4989919 4.51880435,9.50969106 Z" id="Path" fill="#FFE9FB"></path>
                <path d="M64.835471,53.6342846 C64.835471,53.6342846 65.4814493,59.8370569 60.3871739,62.6893089 C60.3871739,62.6893089 65.4814493,64.3532276 65.7682971,70.3659675 C65.7682971,70.3659675 65.9836232,63.4736341 69.9297464,61.4059593 C69.9297464,61.4059593 65.4814493,59.6233333 64.835471,53.6342846 Z" id="Path" fill="#FFE9FB"></path>
                <path d="M9.29021739,87.4016016 C9.29021739,87.4016016 9.93594203,93.604626 4.84166667,96.456878 C4.84166667,96.456878 9.93594203,98.1207967 10.2230435,104.133537 C10.2230435,104.133537 10.4383696,97.2412033 14.3844928,95.1735285 C14.3844928,95.1735285 9.93594203,93.3909024 9.29021739,87.4016016 Z" id="Path" fill="#FFE9FB"></path>
            </g>
        </g>
    </g>
</svg>