<?xml version="1.0" encoding="UTF-8"?>
<svg width="67px" height="124px" viewBox="0 0 67 124" version="1.1" xmlns="http://www.w3.org/2000/svg" xmlns:xlink="http://www.w3.org/1999/xlink">
    <title>Destructive_Magic</title>
    <defs>
        <linearGradient x1="50.0000218%" y1="92.9384353%" x2="50.0000218%" y2="-23.0021446%" id="linearGradient-1">
            <stop stop-color="#E54254" offset="1.54%"></stop>
            <stop stop-color="#FF94A6" offset="100%"></stop>
        </linearGradient>
    </defs>
    <g id="Page-1" stroke="none" stroke-width="1" fill="none" fill-rule="evenodd">
        <g id="30-Fantasy-and-Role-Play-Game-Icons" transform="translate(-462.000000, -1243.000000)" fill-rule="nonzero">
            <g id="Destructive_Magic" transform="translate(462.000000, 1243.000000)">
                <path d="M35.3549356,111.951081 C35.3549356,111.951081 35.5257348,111.963431 35.8226667,111.970236 C38.915072,112.042065 41.9463144,111.107024 44.4902841,109.359935 L48.6178902,106.525829 C50.3007576,105.37026 52.6883939,105.931537 53.5360455,107.780699 C53.5484811,107.807415 53.5606629,107.834634 53.5728447,107.862106 L44.1263523,114.041943 L38.2344129,114.940187 C38.2341591,114.940187 35.5526364,113.477642 35.3549356,111.951081 Z" id="Path" fill="#A06260"></path>
                <path d="M46.4822652,117.329707 C46.4822652,117.329707 52.1270152,113.511163 56.5743939,111.152642 C58.8851326,109.927008 57.8852083,106.373854 55.2734773,106.581276 C55.2349015,106.584553 55.1955644,106.587829 55.1562273,106.591862 C54.8260492,106.624374 54.5113523,106.748374 54.2273636,106.918496 L46.1520871,111.753236 C45.169928,112.340976 44.1291439,112.820593 43.0376023,113.169407 C41.364125,113.703967 38.8762424,114.269024 36.2799924,114.041691 C36.2797386,114.041691 42.4285114,117.128333 46.4822652,117.329707 Z" id="Path" fill="#BA8280"></path>
                <path d="M28.1630947,99.0938943 C27.1441364,99.2446098 26.1043674,98.920748 25.3767576,98.1961545 C23.2771705,96.1050407 18.1529394,91.8409024 10.7514697,91.1813333 C10.7514697,91.1813333 7.2088447,91.0764878 5.81707197,89.2439593 C5.81707197,89.2439593 -2.2884053,78.0600163 0.841814394,66.0486504 C1.00982197,65.4042033 1.82067424,65.1766179 2.29728788,65.6443902 C2.80664015,66.1439187 3.46395076,66.7084715 4.15983712,67.0943333 C4.92373864,67.518 5.85691667,67.4801951 6.58934848,67.0051138 C7.50146212,66.4133415 8.95541288,65.3905935 10.2190227,64.1460569 C12.1295379,62.2641301 12.9830265,59.4897561 12.164053,56.9442276 C11.6554621,55.3632276 10.514178,53.7797073 8.07654545,53.0805691 C7.53217045,52.924561 7.22026515,52.3784065 7.39461742,51.8430894 C8.02731061,49.9014309 9.59724242,45.6204065 11.8810795,42.981374 C12.2379053,42.5690488 12.7429432,42.3162602 13.2903636,42.2963496 C15.6858674,42.2101545 23.1213447,41.462122 27.4106136,35.6416829 C28.0204659,34.8140081 28.5082462,33.8928293 28.7709167,32.9008293 C29.3109773,30.8596179 29.2703712,27.6083984 24.1631439,26.4724878 C24.1631439,26.4724878 18.0686818,25.0996667 21.126572,18.4308862 C21.126572,18.4308862 22.6660492,14.608561 26.4165265,12.2974228 C27.004553,11.935 27.7374924,12.5078699 27.511875,13.1576098 C27.0251098,14.5606748 26.4931705,16.5527398 26.6731061,18.1854065 C26.8182727,19.5027805 27.8141364,20.5696341 29.1168295,20.8564472 C31.7341439,21.4325935 39.114803,23.8269024 38.9308068,32.4915285 C38.9145644,33.2572033 38.4062273,33.9185366 37.6877538,34.1962764 C35.6752159,34.9743008 31.959,37.6256829 34.426072,46.3896098 C34.426072,46.3896098 35.9751932,51.4967967 40.3743523,51.6812846 C43.1827689,51.7989837 43.5512689,49.5251463 43.5634508,48.406878 C43.5670038,48.0978862 43.8494697,47.8708049 44.1507159,47.9481789 C46.6931629,48.6016992 56.2586818,51.6979187 56.8573674,61.403439 C56.9134545,62.31 56.5896212,63.208748 55.9764697,63.8826829 C53.7512576,66.3289106 48.8018864,72.9866016 54.1012311,79.1613984 C54.8671629,80.0535935 55.0227348,81.3119919 54.5608409,82.3906911 C52.8358447,86.420439 47.5796439,95.3338211 34.0847273,98.2178293 L28.1630947,99.0938943 Z" id="Path" fill="url(#linearGradient-1)"></path>
                <path d="M45.5742121,42.0768293 C45.5742121,43.4365447 44.7557462,44.538935 43.3868144,44.538935 C42.017375,44.538935 40.9073068,43.4365447 40.9073068,42.0768293 C40.9073068,40.7171138 42.0171212,39.6147236 43.3868144,39.6147236 C44.756,39.6147236 45.5742121,40.7171138 45.5742121,42.0768293 Z" id="Path" fill="#FF697B"></path>
                <path d="M33.9025076,0.626552846 C33.4482273,0.166341463 32.7193485,0.0773739837 32.1947689,0.456934959 C31.5209621,0.944617886 30.7103636,2.05179675 30.5989508,4.56380488 C30.5989508,4.56380488 30.6689962,5.63065854 30.4207917,6.65517073 C30.2728333,7.26458537 30.833197,7.79990244 31.4377197,7.61869106 C31.5257841,7.59222764 31.6158788,7.5632439 31.7072424,7.5314878 C33.943875,6.758 35.2879356,4.36343902 34.6945795,2.0863252 C34.5557576,1.55428455 34.3108523,1.04064228 33.9025076,0.626552846 Z" id="Path" fill="#FF94A6"></path>
                <path d="M26.6190492,52.5891057 C25.7338371,53.7965935 24.7090417,55.3876748 24.178625,56.8895366 C24.0151856,57.3520163 24.0946212,57.8654065 24.3902841,58.2580732 C25.2798106,59.4385935 26.6725985,62.542122 20.8413144,66.2696829 C20.8413144,66.2696829 15.3488371,69.0821138 15.2630568,74.7924146 C15.2630568,74.7924146 15.3569583,85.2079106 25.355947,87.6664878 C26.8895871,88.0437805 28.4793144,88.1317398 30.0571136,88.0500813 C31.5349205,87.9734634 33.5256326,87.7713333 35.2480909,87.2529024 C35.9906742,87.0293496 36.6279356,86.5613252 37.1073409,85.955439 C37.9453485,84.8969024 39.5033523,83.0832764 41.2151515,81.8664634 C42.0260038,81.289813 42.6246894,80.4749919 42.8579205,79.5117236 C43.3982348,77.2784634 43.7938902,73.1577317 40.9354773,69.3283496 C40.6804205,68.9865935 40.1538106,68.9883577 39.9330152,69.3530488 C39.391178,70.246 38.2531932,71.5543008 36.3190758,71.3105854 C34.5118523,71.082748 33.0053674,69.2532439 32.9947083,67.4441545 C32.9876023,66.2354065 33.4208182,65.0286748 35.1008939,64.8273008 C35.6300417,64.7640407 35.9295114,64.1836098 35.6884129,63.7115528 C35.0805909,62.5229675 33.6779053,60.6546504 30.5887992,59.5230244 C29.0625189,58.9637642 27.8529659,57.7283008 27.5392841,56.1432683 C27.373053,55.3034959 27.3385379,54.2603333 27.5649167,52.9840407 C27.6616098,52.4373821 26.9479583,52.1404878 26.6190492,52.5891057 Z" id="Path" fill="#FBB04D"></path>
                <path d="M25.7173409,46.8505772 C25.7173409,47.7515935 24.6247841,48.8010569 23.7174924,48.8010569 C22.8102008,48.8010569 22.0747235,48.0706667 22.0747235,47.1696504 C22.0747235,46.2686341 23.3814773,44.9000976 24.2887689,44.9000976 C25.1960606,44.9000976 25.7173409,45.949561 25.7173409,46.8505772 Z" id="Path" fill="#FBB04D"></path>
                <path d="M55.3331174,106.577244 C55.2945417,106.579764 55.2359167,106.584553 55.1884583,106.589089 C54.8755379,106.618073 54.5402841,106.731488 54.2562955,106.90161 L46.1980227,111.753236 C45.2158636,112.340976 44.1750795,112.820593 43.0835379,113.169407 C41.5440606,113.661374 39.3125038,114.171236 36.9441553,114.073447 L38.2795871,114.939431 C38.2800947,114.939683 38.2808561,114.940187 38.2816174,114.940439 C38.2927841,114.943211 41.9478371,115.851789 47.1205417,112.877805 L54.5608409,108.129008 C55.3318485,107.637041 56.2048788,107.301081 57.1177538,107.220683 C57.1177538,107.220683 56.527697,106.508439 55.3331174,106.577244 Z" id="Path" fill="#DDAEA9"></path>
                <path d="M1.29304924,110.828024 C1.29304924,113.469325 1.29304924,118.409919 1.29304924,121.070122 C1.29304924,122.167724 2.07217803,123.110073 3.15813636,123.313715 C6.30967424,123.904984 11.4800947,124.540358 19.6381061,121.08726 C19.6381061,121.08726 27.1794129,117.392463 36.8230985,120.157764 C36.8230985,120.157764 43.2946894,122.071699 48.9998409,122.40035 C50.3342576,122.477724 51.6397424,122.033894 52.6449962,121.158585 C54.9354318,119.164252 59.8025758,115.278415 65.3115492,113.001805 C67.4550417,112.115407 67.3794129,109.043634 65.1930303,108.267374 C65.0143636,108.203862 64.8285909,108.147407 64.6359659,108.099268 C64.1659508,107.981821 63.6753788,107.993667 63.2145,108.141862 C61.5953333,108.663569 57.0609053,110.25465 53.3157576,112.79413 C50.8930985,114.436878 47.9489053,115.127951 45.0559773,114.644553 C41.4742689,114.045724 36.7406174,112.787829 32.9657765,110.147033 C30.861875,108.675415 29.9233674,105.933301 31.0075492,103.61561 C31.2131174,103.176821 31.4808636,102.76626 31.8290606,102.420472 C31.8290606,102.420472 38.7229545,95.9770081 42.6031174,92.2499512 C43.5289356,91.3610325 43.0992727,89.8168293 41.8486061,89.5108618 C40.1350303,89.0917317 37.8093182,88.9982276 35.6853674,90.504878 L28.8485758,96.4455366 C28.1526894,97.0501626 27.2580871,97.3715041 26.3337917,97.3415122 C23.0467311,97.2343984 14.4666705,97.9867154 8.43540152,107.777675 C8.00243939,108.480341 7.261125,108.933748 6.43935985,109.046407 C5.54298106,109.168894 4.30170455,109.281553 2.98200758,109.225854 C2.06202652,109.187293 1.29304924,109.913146 1.29304924,110.828024 Z" id="Path" fill="#FFD3CD"></path>
                <path d="M36.0185909,113.213764 C37.7821629,113.171423 41.5775606,112.833195 44.1656894,110.822984 L48.9787765,107.685935 C49.8302348,107.130959 50.7611288,106.690659 51.753947,106.464081 C51.9064735,106.429301 52.0815871,106.391244 52.2399508,106.366041 C51.1600833,105.754358 49.7297348,105.762423 48.6181439,106.525829 L44.4887614,109.361447 C41.9452992,111.108285 38.9140568,112.042317 35.8226667,111.970488 C35.5257348,111.963683 35.3551894,111.951333 35.3551894,111.951333 C35.4112765,112.388862 35.6749621,112.819837 36.0185909,113.213764 Z" id="Path" fill="#BA8280"></path>
                <path d="M36.8230985,120.157764 C36.8230985,120.157764 43.2946894,122.071951 48.9998409,122.400602 C50.3342576,122.477976 51.6397424,122.034146 52.6449962,121.158837 C54.9354318,119.164504 59.8025758,115.278667 65.3112955,113.002057 C67.4550417,112.115911 67.3794129,109.043886 65.1930303,108.267626 C65.0143636,108.204114 64.8285909,108.147659 64.6359659,108.09952 C64.1659508,107.982073 63.6753788,107.993919 63.2145,108.142114 C61.5953333,108.663821 57.0609053,110.254902 53.3157576,112.794382 C50.8930985,114.43713 47.9489053,115.128203 45.0559773,114.644805 C41.4742689,114.045976 36.7406174,112.788081 32.9657765,110.147285 C30.861875,108.675667 29.9233674,105.933553 31.0075492,103.615862 C31.2131174,103.177073 31.4808636,102.766512 31.8290606,102.420724 C31.8290606,102.420724 38.7229545,95.9772602 42.6031174,92.2502033 C43.1048561,91.7688211 43.1974886,91.0989187 42.9883674,90.5333577 C42.3328333,90.4839593 41.7006477,90.5033659 41.1156667,90.5729268 C39.2434735,90.7954715 37.5037576,91.6423008 36.1195985,92.9140569 L28.9112614,99.5372195 C28.2260341,100.166797 27.3489432,100.559967 26.4190644,100.642382 C17.4347197,101.439057 12.8957235,107.092398 10.8981591,110.669748 C9.88630682,112.481862 7.98568939,113.620293 5.89904545,113.620293 L1.29254167,113.620293 C1.29254167,116.164309 1.29254167,119.186935 1.29254167,121.06987 C1.29254167,122.167472 2.07167045,123.109821 3.15762879,123.313211 C6.30916667,123.904732 11.4795871,124.540106 19.6375985,121.087008 C19.6381061,121.08726 27.1794129,117.392463 36.8230985,120.157764 Z" id="Path" fill="#DDAEA9"></path>
                <path d="M66.4766894,109.271976 C66.1957462,108.832179 65.7681136,108.471772 65.1932841,108.267878 C65.0146174,108.204366 64.8288447,108.147911 64.6362197,108.099772 C64.1662045,107.982325 63.6756326,107.994171 63.2147538,108.142366 C61.5955871,108.664073 57.0611591,110.255154 53.3160114,112.794634 C50.8933523,114.437382 47.9491591,115.128455 45.0562311,114.645057 C41.9463144,114.125114 37.9694583,113.10539 34.5042386,111.117862 C38.5851477,114.781911 44.2928371,116.348293 47.4578258,116.965016 C48.8714242,117.240236 50.3307045,116.89848 51.5021894,116.066016 C58.4148636,111.152642 64.2717803,109.678756 66.4766894,109.271976 Z" id="Path" fill="#FFD3CD"></path>
                <path d="M32.6444811,83.1475447 C31.451678,84.2794228 29.9906212,84.4510569 28.1082765,84.3378943 C26.1459886,84.2199431 23.5015189,82.8801382 22.7957348,79.9893252 C22.7957348,79.9893252 22.3747008,78.1673821 22.9822689,76.3517398 C23.4258902,75.0263008 24.5179394,74.0378293 25.8107348,73.4876423 C26.5109356,73.1897398 27.4849735,72.5483171 27.7187121,71.2435447 C27.7981477,70.8007236 28.3224735,70.5839756 28.7122917,70.8128211 C29.4294962,71.2342195 30.3621667,71.9414228 30.8083258,72.9480407 C30.8083258,72.9480407 31.3417879,74.5323171 32.5302765,75.5028943 C33.6307008,76.4011382 34.3796288,77.6807073 34.3311553,79.0943577 C34.2852197,80.4200488 33.8994621,81.955935 32.6444811,83.1475447 Z" id="Path" fill="#FFFFFF"></path>
                <ellipse id="Oval" fill="#FFFFFF" cx="24.4534773" cy="69.8676992" rx="1" ry="1"></ellipse>
                <ellipse id="Oval" fill="#FBB04D" cx="39.6345606" cy="62.7036748" rx="1" ry="1"></ellipse>
            </g>
        </g>
    </g>
</svg>