<?xml version="1.0" encoding="UTF-8"?>
<svg width="126px" height="62px" viewBox="0 0 126 62" version="1.1" xmlns="http://www.w3.org/2000/svg" xmlns:xlink="http://www.w3.org/1999/xlink">
    <title>Food</title>
    <defs>
        <linearGradient x1="36.5185136%" y1="8.19633188%" x2="87.3173297%" y2="113.310067%" id="linearGradient-1">
            <stop stop-color="#FFC8A8" offset="0.51%"></stop>
            <stop stop-color="#FF8E73" offset="100%"></stop>
        </linearGradient>
    </defs>
    <g id="Page-1" stroke="none" stroke-width="1" fill="none" fill-rule="evenodd">
        <g id="30-Fantasy-and-Role-Play-Game-Icons" transform="translate(-174.000000, -1274.000000)" fill-rule="nonzero">
            <g id="Food" transform="translate(174.000000, 1274.000000)">
                <path d="M24.246936,25.6609717 L27.299664,16.5394413 L16.138584,15.2090769 C16.138584,15.2090769 16.787988,13.9690769 17.1612,12.3098866 C18.170964,7.82078543 13.956012,3.68410526 9.5886,5.17963563 C8.231832,5.64425911 6.9174,6.65784615 6.027336,8.6531417 C6.027336,8.6531417 5.00472,11.7082105 7.0497,13.9361943 C7.337736,14.2499595 7.109928,14.7677976 6.683544,14.7873765 C4.78926,14.8742267 1.574748,15.5499514 0.46494,18.9955951 C0.199584,19.819166 0.120456,20.6969555 0.200844,21.5581781 C0.388332,23.5622591 1.472436,26.8653279 6.578208,26.908502 C7.240464,26.9140243 7.900452,26.8314413 8.543556,26.6748097 C10.237752,26.2616437 13.441428,24.573587 14.70798,22.050413 L24.246936,25.6609717 Z" id="Path" fill="#E3EEFF"></path>
                <path d="M16.483572,22.7226235 L24.246684,25.6609717 L27.299664,16.5394413 L23.616684,16.1004211 C22.575168,18.2194656 20.418804,21.4068178 16.483572,22.7226235 Z" id="Path" fill="#C7DAFF"></path>
                <path d="M13.505688,23.7123644 C10.362744,24.4392955 3.231396,25.0934332 1.907892,16.6215223 C1.303848,17.2114008 0.791532,17.980753 0.46494,18.9953441 C0.199584,19.818915 0.120456,20.6969555 0.200844,21.5581781 C0.388332,23.5622591 1.472436,26.8653279 6.578208,26.908502 C7.240464,26.9140243 7.9002,26.8314413 8.543556,26.6748097 C9.831276,26.3607935 11.987136,25.3067935 13.505688,23.7123644 Z" id="Path" fill="#C7DAFF"></path>
                <path d="M84.204288,7.4937166 C84.204288,7.4937166 73.05858,8.63356275 66.673656,10.1702591 C65.677248,10.4099757 64.661436,10.5224291 63.636552,10.4857814 C63.608328,10.4847773 63.5796,10.4837733 63.550872,10.4825182 C60.633468,10.3665506 57.87936,9.10395951 55.83564,7.02683401 L50.994468,2.10674494 C48.990564,0.0702834008 45.949176,-0.562518219 43.303932,0.528129555 C38.700648,2.4262834 31.643388,6.46306073 26.68554,14.5049879 C24.192504,18.5485425 23.006088,23.25 23.136372,27.9933765 C23.272956,32.9711984 24.060204,39.8398947 27.026748,44.4188583 C27.919836,45.797417 29.485512,46.5878543 31.128804,46.4814251 C35.84952,46.1759433 46.777248,45.7622753 52.668504,47.926251 C53.300772,48.1584372 53.964792,48.2580891 54.63738,48.2136599 C56.184408,48.111247 59.203368,48.3067854 60.995088,51.0174656 C61.235244,51.3806802 61.48674,51.7328502 61.802244,52.0335628 C63.650916,53.795417 70.646184,59.7072551 82.568304,61.133004 L84.204288,7.4937166 Z" id="Path" fill="url(#linearGradient-1)"></path>
                <path d="M29.62386,27.4303563 C29.17152,28.5963077 28.543536,30.4545506 28.424592,32.0427045 C28.348992,33.0520243 28.811916,34.0221862 29.663172,34.574413 C30.096864,34.8557976 30.66588,35.1572632 31.389624,35.4180648 C32.163516,35.6964372 33.002424,35.1878866 33.0939,34.3733522 C33.21612,33.2824534 33.290712,31.661166 33.030144,29.7956437 C32.940684,29.1555628 32.626692,28.5636761 32.145624,28.1301781 L31.00356,27.1010283 C30.554748,26.6966478 29.84184,26.8680891 29.62386,27.4303563 Z" id="Path" fill="#FA6B5A"></path>
                <path d="M46.79892,11.8799028 L48.987036,15.0795547 C49.535388,15.8815385 50.513904,16.2766316 51.467976,16.0815951 L52.373664,15.8965992 C52.756452,15.8182834 53.020044,15.4651093 52.974936,15.0785506 C52.89858,14.424915 52.722432,13.3857247 52.318728,12.3322267 C51.967188,11.4155304 51.101064,10.7859919 50.118768,10.7147045 C49.34034,10.6579757 48.340656,10.6255951 47.34576,10.704915 C46.774476,10.7503482 46.476612,11.408251 46.79892,11.8799028 Z" id="Path" fill="#FA6B5A"></path>
                <path d="M27.299664,44.784583 C28.218456,45.9317085 29.63898,46.5778138 31.129056,46.4814251 C35.84952,46.1759433 46.777248,45.7622753 52.668504,47.926251 C53.300772,48.1584372 53.964792,48.2580891 54.637128,48.2136599 C56.184408,48.111247 59.203368,48.3067854 60.994836,51.0174656 C61.234992,51.3806802 61.486488,51.7328502 61.801992,52.0335628 C63.650664,53.795166 70.645932,59.7072551 82.568052,61.133004 L84.203784,7.49396761 C84.203784,7.49396761 79.701804,7.9545749 74.781252,8.68476923 C74.24046,17.6378704 69.06942,43.7667287 27.299664,44.784583 Z" id="Path" fill="#FF8E73"></path>
                <path d="M84.204288,7.4937166 C84.204288,7.4937166 71.423856,17.8504777 67.867632,39.9844777 C67.421592,42.759417 67.993128,45.6028826 69.502104,47.9769555 C71.780184,51.5609069 75.538764,56.8966721 79.34598,59.7988745 C80.28468,60.5147611 81.398772,60.9618138 82.568052,61.132753 L86.26212,61.6739352 C88.35246,61.98017 90.46422,61.339587 92.03544,59.932915 C96.840324,55.6318219 106.289064,45.2441862 105.064092,30.9131498 C104.89878,28.9765911 103.704552,27.2368259 101.931228,26.4258057 C99.794268,25.4483644 97.086024,23.3905668 96.9003,19.2104615 C96.848388,18.0440081 96.339096,16.9500972 95.568228,16.0705506 C93.519468,13.7336275 89.340804,9.54021862 84.204288,7.4937166 Z" id="Path" fill="#FA6B5A"></path>
                <path d="M87.543036,38.317004 C87.545052,38.2191093 87.548076,38.1209636 87.552108,38.0218138 C87.715152,34.1258543 91.70154,31.5542348 95.346216,32.9769717 C99.534204,34.6115628 105.278292,36.704502 108.19998,37.1106397 C108.19998,37.1106397 111.426588,28.9916518 118.17162,29.285085 C120.590064,29.3905101 122.849748,30.6674089 124.237764,32.6428745 C125.142696,33.9310688 125.92062,35.713004 125.820324,37.9746235 C125.679708,41.1486721 123.784164,44.0724615 120.840804,45.2971498 C120.544452,45.4201457 120.232476,45.5300891 119.90538,45.6207045 C118.80036,45.9276923 118.134072,47.0351579 118.35936,48.1554251 C118.51686,48.938332 118.638828,49.8746073 118.633788,50.8826721 C118.600776,57.2907611 111.453804,61.4475223 105.84756,58.3045992 C104.384196,57.4842915 103.116384,56.1145182 102.47454,53.8764939 C102.245472,53.0780243 102.131064,49.0861781 103.848444,47.1471093 C103.848444,47.1471093 97.461504,45.0027126 92.130192,43.8826964 C89.473608,43.3251984 87.487092,41.0209069 87.543036,38.317004 Z" id="Path" fill="#E3EEFF"></path>
                <path d="M118.53954,52.0900405 C117.481392,52.9944372 116.237772,53.444251 115.118136,53.6412955 C112.939344,54.0245911 110.64312,53.4364696 109.001592,51.9592632 C106.569036,49.7699352 106.783488,46.788915 107.330076,44.7798138 C107.627184,43.6874089 106.903944,42.5892308 105.773472,42.4732632 C99.596448,41.8379514 91.341684,38.6523563 87.665004,37.1432713 C87.608052,37.4286721 87.565212,37.7198462 87.55236,38.0223158 C87.549084,38.0976194 87.546816,38.1724211 87.5448,38.2467206 C87.476004,40.9699514 89.40582,43.3139028 92.08206,43.8734089 C97.4232,44.990413 103.848948,47.1481134 103.848948,47.1481134 C102.131568,49.0871822 102.245976,53.0790283 102.474792,53.877498 C103.116888,56.1155223 104.3847,57.4852955 105.848064,58.3056032 C111.093444,61.2454575 117.68526,57.7945425 118.53954,52.0900405 Z" id="Path" fill="#C7DAFF"></path>
            </g>
        </g>
    </g>
</svg>