<?xml version="1.0" encoding="UTF-8"?>
<svg width="82px" height="118px" viewBox="0 0 82 118" version="1.1" xmlns="http://www.w3.org/2000/svg" xmlns:xlink="http://www.w3.org/1999/xlink">
    <title>Potion</title>
    <defs>
        <linearGradient x1="50.0003034%" y1="96.6884236%" x2="50.0003034%" y2="-24.5987438%" id="linearGradient-1">
            <stop stop-color="#FFCCE0" offset="1.03%"></stop>
            <stop stop-color="#FFE6FA" offset="100%"></stop>
        </linearGradient>
    </defs>
    <g id="Page-1" stroke="none" stroke-width="1" fill="none" fill-rule="evenodd">
        <g id="30-Fantasy-and-Role-Play-Game-Icons" transform="translate(-196.000000, -1523.000000)" fill-rule="nonzero">
            <g id="Potion" transform="translate(196.000000, 1523.000000)">
                <path d="M41,0.245581197 L34.0435828,0.245581197 C32.8535767,0.245581197 31.939,1.30152991 32.1055153,2.48253846 L33.3390368,11.2273974 L41,11.2273974 L48.6609632,11.2273974 L49.8944847,2.48253846 C50.061,1.30127778 49.1464233,0.245581197 47.9564172,0.245581197 L41,0.245581197 Z" id="Path" fill="#BA8280"></path>
                <polygon id="Path" fill="#965C5C" points="32.5645644 5.73636325 33.3390368 11.2271453 41 11.2271453 48.6609632 11.2271453 49.4354356 5.73636325"></polygon>
                <path d="M59.2948037,40.2309402 L59.3166871,40.2334615 C59.3046135,40.2309402 59.2937975,40.226906 59.2817239,40.2243846 C58.8357546,39.9999829 58.3855092,39.7828932 57.9307362,39.5736197 C54.2885276,37.8974145 51.4389018,34.8034444 50.418681,30.9182692 C50.3087607,30.4999744 50.2194663,30.1000855 50.1465215,29.7269231 C49.8610307,28.2642778 49.7543804,26.7660812 49.9362393,25.287047 C50.7109632,18.9798462 55.3603129,15.9970684 55.3603129,15.9970684 L41,15.9970684 L26.6394356,15.9970684 C26.6394356,15.9970684 31.2887853,18.9798462 32.0635092,25.287047 C32.2453681,26.7660812 32.1387178,28.2645299 31.853227,29.7269231 C31.7802822,30.0998333 31.6907362,30.4997222 31.5810675,30.9182692 C30.5603436,34.8034444 27.7112209,37.8974145 24.0690123,39.5736197 C23.6142393,39.7828932 23.1639939,39.9999829 22.7180245,40.2243846 C22.7059509,40.226906 22.695135,40.2309402 22.6830613,40.2334615 L22.7049448,40.2309402 C8.4676319,47.3976752 -1.01695092,62.6554786 0.28498773,79.991141 C1.82990798,100.563483 18.8252883,116.931949 39.3911902,117.723406 C62.6759202,118.619752 81.8337362,99.9636496 81.8337362,76.8225385 C81.8337362,60.8121068 72.6577853,46.9574444 59.2948037,40.2309402 Z" id="Path" fill="url(#linearGradient-1)"></path>
                <path d="M55.3006994,9.34166667 L26.0028037,9.34166667 C24.1693742,9.34166667 22.6833129,10.8312906 22.6833129,12.6693675 L22.6833129,12.6693675 C22.6833129,14.5071923 24.1693742,15.9968162 26.0028037,15.9968162 L55.3006994,15.9968162 C57.1341288,15.9968162 58.6204417,14.5071923 58.6204417,12.6693675 L58.6204417,12.6693675 C58.6204417,10.8312906 57.1341288,9.34166667 55.3006994,9.34166667 Z" id="Path" fill="#FFCCE0"></path>
                <path d="M26.6394356,15.9968162 C26.6394356,15.9968162 28.5465644,17.2290085 30.1221718,19.7682778 L51.8778282,19.7682778 C53.4534356,17.2290085 55.3605644,15.9968162 55.3605644,15.9968162 L41,15.9968162 L26.6394356,15.9968162 Z" id="Path" fill="#DB8DA5"></path>
                <path d="M73.2340491,78.4246154 C73.3650982,75.9314872 73.2119141,73.497359 72.8056871,71.1499658 C71.8201779,65.4557094 66.6931656,61.4144615 60.9428528,61.8294786 C52.0222086,62.473688 42.7645092,67.7841923 39.8409325,69.5955427 C39.1391534,70.0302265 38.4242945,70.4462521 37.6792515,70.8010085 C27.7846687,75.5136966 20.1156564,74.577765 14.9008589,72.4406538 C11.949865,71.231406 8.72369325,73.4164231 8.71992025,76.6125085 L8.71992025,76.6878974 C8.71992025,95.2759231 24.3557607,110.203175 43.1629387,108.974513 C59.3400798,107.917808 72.3808466,94.6523889 73.2340491,78.4246154 Z" id="Path" fill="#CC5697"></path>
                <path d="M23.4029509,46.4408162 C23.4029509,46.4408162 14.368362,48.4001709 12.3986012,59.7851538 C12.1842945,61.0223889 13.0276871,62.2104573 14.2609571,62.4305726 C16.2038037,62.7775128 19.3082331,62.8034829 22.8568712,60.8471538 C24.4498344,59.9692137 25.8481104,58.7821538 27.0647791,57.4279274 C28.5566258,55.7686154 30.3759693,53.2651496 30.6171902,50.7226026 C30.8553926,48.2080427 28.7432638,46.102953 26.2233988,46.1021966 C25.3792515,46.1021966 24.4103436,46.1866624 23.4029509,46.4408162 Z" id="Path" fill="#FFFFFF"></path>
                <ellipse id="Oval" fill="#A03774" cx="22.6314969" cy="87.5217094" rx="4.02403681" ry="4.03368376"></ellipse>
                <ellipse id="Oval" fill="#A03774" cx="37.9954294" cy="80.0050085" rx="1.23452761" ry="1.23748718"></ellipse>
                <ellipse id="Oval" fill="#A03774" cx="47.5977301" cy="94.3972265" rx="6.85907362" ry="6.87551709"></ellipse>
                <ellipse id="Oval" fill="#A03774" cx="60.1268773" cy="74.9630299" rx="3.15498773" ry="3.16255128"></ellipse>
            </g>
        </g>
    </g>
</svg>